<svg width="53" height="53" viewBox="0 0 53 53" fill="none" xmlns="http://www.w3.org/2000/svg">
<path d="M43.5883 24.8287C43.5896 24.9075 43.5908 25.001 43.5908 25.0945C43.5908 32.2617 39.0025 38.3572 32.6031 40.6028L32.4874 40.6384C31.6471 40.791 31.3432 40.2681 31.3432 39.8374C31.3432 39.2948 31.3628 36.5362 31.3628 34.3067C31.3702 34.2132 31.3751 34.1049 31.3751 33.9941C31.3751 32.9188 30.9408 31.9443 30.2382 31.2368C33.9357 30.8197 37.8324 30.3103 37.8324 23.9268C37.8324 23.9059 37.8324 23.8813 37.8324 23.8567C37.8324 22.3396 37.1754 20.9763 36.1307 20.035L36.1258 20.0313C36.3387 19.4284 36.4629 18.7332 36.4629 18.0085C36.4629 17.1164 36.2759 16.2674 35.9388 15.4996L35.9548 15.5402C34.5718 15.1034 31.3899 17.3268 31.3899 17.3268C30.1447 16.97 28.7137 16.7645 27.236 16.7645C25.7583 16.7645 24.3273 16.97 22.9713 17.3539L23.0809 17.3268C23.0809 17.3268 19.899 15.1108 18.516 15.5402C18.1948 16.2687 18.0078 17.1164 18.0078 18.0097C18.0078 18.7344 18.1309 19.4296 18.3573 20.0768L18.3437 20.0325C17.3778 20.948 16.7762 22.2411 16.7762 23.6746C16.7762 23.7644 16.7786 23.853 16.7835 23.9416V23.9293C16.7835 30.293 20.5142 30.8283 24.2128 31.2392C23.6333 31.8188 23.2457 32.5915 23.1559 33.4528L23.1547 33.4688C22.6551 33.7604 22.0547 33.9326 21.4149 33.9326C20.0885 33.9326 18.9331 33.1931 18.3413 32.1042L18.3326 32.0858C17.7937 31.1716 16.8746 30.5305 15.798 30.3816L15.7795 30.3792C14.159 30.3595 15.6737 31.398 15.6737 31.398C16.7589 31.8938 17.5132 33.8194 17.5132 33.8194C18.4864 36.7823 23.1165 35.7906 23.1165 35.7906C23.1165 37.1797 23.1362 39.4425 23.1362 39.8522C23.1362 40.2816 22.8385 40.8045 21.9919 40.6532C15.4128 38.3523 10.7791 32.199 10.7791 24.9628C10.7791 24.9161 10.7791 24.8693 10.7791 24.8226V24.83C10.7778 24.7463 10.7766 24.6466 10.7766 24.5482C10.7766 15.7876 17.8786 8.68556 26.6392 8.68556C26.7561 8.68556 26.8743 8.68679 26.9911 8.68925H26.9739C27.092 8.68556 27.2311 8.68433 27.3713 8.68433C36.303 8.68433 43.549 15.9045 43.5908 24.8263V24.83L43.5883 24.8287ZM16.7774 30.9205C16.909 30.9858 16.9755 31.0928 16.93 31.1789C16.8943 31.2318 16.834 31.2663 16.7663 31.2663C16.7208 31.2663 16.679 31.2503 16.6457 31.2245C16.5141 31.1593 16.4476 31.0522 16.4932 30.9661C16.5399 30.8996 16.6457 30.8799 16.7774 30.9193V30.9205ZM17.5513 31.569C17.6633 31.6945 17.6842 31.8471 17.5981 31.9135C17.512 31.9996 17.3594 31.9529 17.2536 31.8483C17.1416 31.7228 17.1207 31.5702 17.2068 31.5038C17.2929 31.4176 17.4455 31.4632 17.5513 31.569ZM18.2527 32.482C18.3019 32.5361 18.3326 32.6075 18.3326 32.6874C18.3326 32.7674 18.3019 32.8388 18.2514 32.8929C18.1653 32.9581 17.9869 32.8929 17.8811 32.7403C17.7753 32.5878 17.7753 32.4167 17.8811 32.3503C17.9869 32.2642 18.1592 32.3306 18.2514 32.4832L18.2527 32.482ZM19.066 33.3888C19.1989 33.5143 19.2382 33.7124 19.1521 33.7985C19.066 33.9043 18.874 33.8846 18.7227 33.7333C18.5701 33.6078 18.5307 33.4097 18.6366 33.3236C18.7227 33.2178 18.9208 33.2374 19.066 33.3888ZM20.1045 33.9966C20.3026 34.0557 20.4281 34.2082 20.3887 34.3411C20.3358 34.4396 20.2324 34.5048 20.1155 34.5048C20.0663 34.5048 20.0183 34.4937 19.9777 34.4728L19.979 34.474C19.7809 34.4346 19.648 34.2821 19.6947 34.1504C19.7538 34.0471 19.8645 33.9782 19.99 33.9782C20.0306 33.9782 20.07 33.9855 20.1069 33.9991L20.1045 33.9978V33.9966ZM21.4075 34.6844C21.1897 34.7041 21.0371 34.5983 21.0371 34.4469C21.0371 34.3141 21.1897 34.2082 21.3816 34.2082C21.5797 34.1886 21.752 34.2944 21.752 34.4469C21.752 34.5786 21.5994 34.6844 21.4075 34.6844ZM23.0083 34.2292C23.0279 34.3608 22.8963 34.4876 22.7043 34.5331C22.5062 34.5798 22.334 34.4937 22.3143 34.3608C22.2946 34.2082 22.4263 34.0827 22.6182 34.0372C22.8102 34.0175 22.9886 34.1037 23.0083 34.2292Z" fill="black"/>
<circle cx="26.0989" cy="26.4991" r="25.4239" stroke="#D7D7D7" stroke-width="1.24019"/>
</svg>
