<svg width="29" height="29" viewBox="0 0 29 29" fill="none" xmlns="http://www.w3.org/2000/svg">
<g clip-path="url(#clip0_125_219)">
<path d="M2.46623 1.94312C0.59059 1.94312 -0.635742 3.17476 -0.635742 4.79358C-0.635742 6.37665 0.554058 7.64341 2.39426 7.64341H2.42985C4.34218 7.64341 5.5323 6.37665 5.5323 4.79358C5.49654 3.17476 4.34218 1.94312 2.46623 1.94312Z" fill="black"/>
<path d="M-0.311523 9.89575H5.17177V26.3925H-0.311523V9.89575Z" fill="black"/>
<path d="M18.6306 9.50854C15.6725 9.50854 13.689 12.2881 13.689 12.2881V9.89573H8.20557V26.3924H13.6887V17.18C13.6887 16.6868 13.7245 16.1944 13.8693 15.8418C14.2657 14.8569 15.1678 13.8367 16.6826 13.8367C18.6668 13.8367 19.4603 15.3495 19.4603 17.5672V26.3924H24.9432V16.9335C24.9432 11.8664 22.2379 9.50854 18.6306 9.50854Z" fill="black"/>
</g>
<defs>
<clipPath id="clip0_125_219">
<rect width="27.1803" height="27.1803" fill="white" transform="translate(0.889648 0.920898)"/>
</clipPath>
</defs>
</svg>
