<svg width="53" height="54" viewBox="0 0 53 54" fill="none" xmlns="http://www.w3.org/2000/svg">
<path d="M15.5032 19.7819L12.7812 16.4982V16.0088H21.2439L27.7873 30.3568L33.5389 16.0088H41.6097V16.4982L39.2797 18.7319C39.1154 18.8567 39.0114 19.0527 39.0114 19.2728C39.0114 19.3111 39.0147 19.3494 39.0213 19.3867V19.3823V35.8008C39.0158 35.8336 39.0125 35.8719 39.0125 35.9114C39.0125 36.1314 39.1176 36.3274 39.2797 36.4522L39.2818 36.4533L41.5571 38.687V39.1764H30.1063V38.687L32.4659 36.3997C32.6947 36.1698 32.6947 36.0975 32.6947 35.7471V22.4787L26.1339 39.1337H25.247L17.6164 22.4787V33.6405C17.6066 33.704 17.6022 33.7773 17.6022 33.8518C17.6022 34.2679 17.7686 34.6445 18.0402 34.9193L21.106 38.6366V39.1261H12.4133V38.6432L15.4802 34.9193C15.7364 34.6555 15.8952 34.2941 15.8952 33.8956C15.8952 33.8047 15.8875 33.716 15.8711 33.6306L15.8722 33.6394V20.7334C15.8755 20.7006 15.8777 20.6612 15.8777 20.6228C15.8777 20.2889 15.7343 19.9889 15.5054 19.7808L15.5043 19.7797L15.5032 19.7819Z" fill="black"/>
<circle cx="26.6497" cy="27.0191" r="25.4239" stroke="#D7D7D7" stroke-width="1.24019"/>
</svg>
