<svg width="30" height="34" viewBox="0 0 30 34" fill="none" xmlns="http://www.w3.org/2000/svg">
<path d="M8.1999 16H7.1999V18H8.1999V16ZM21.7999 18H22.7999V16H21.7999V18ZM17.2666 22.8H16.2666V24.8H17.2666V22.8ZM21.7999 24.8H22.7999V22.8H21.7999V24.8ZM8.1999 9.20001H7.1999V11.2H8.1999V9.20001ZM12.7332 11.2H13.7332V9.20001H12.7332V11.2ZM21.7999 1.13335L22.507 0.42624L22.2141 0.133347H21.7999V1.13335ZM28.5999 7.93334H29.5999V7.51913L29.307 7.22624L28.5999 7.93334ZM8.1999 18H21.7999V16H8.1999V18ZM17.2666 24.8H21.7999V22.8H17.2666V24.8ZM8.1999 11.2H12.7332V9.20001H8.1999V11.2ZM26.3332 31.8667H3.66657V33.8667H26.3332V31.8667ZM2.3999 30.6V3.40001H0.399902V30.6H2.3999ZM3.66657 2.13335H21.7999V0.133347H3.66657V2.13335ZM27.5999 7.93334V30.6H29.5999V7.93334H27.5999ZM21.0928 1.84045L27.8928 8.64045L29.307 7.22624L22.507 0.42624L21.0928 1.84045ZM3.66657 31.8667C2.96701 31.8667 2.3999 31.2996 2.3999 30.6H0.399902C0.399902 32.4041 1.86244 33.8667 3.66657 33.8667V31.8667ZM26.3332 33.8667C28.1374 33.8667 29.5999 32.4041 29.5999 30.6H27.5999C27.5999 31.2996 27.0328 31.8667 26.3332 31.8667V33.8667ZM2.3999 3.40001C2.3999 2.70045 2.96701 2.13335 3.66657 2.13335V0.133347C1.86244 0.133347 0.399902 1.59588 0.399902 3.40001H2.3999Z" fill="#C6C6C6"/>
</svg>
