<svg width="52" height="52" viewBox="0 0 52 52" fill="none" xmlns="http://www.w3.org/2000/svg">
<path d="M25.6573 45.1018C15.7254 45.1018 7.67456 37.051 7.67456 27.1191C7.67456 17.1872 15.7254 9.13635 25.6573 9.13635C35.5892 9.13635 43.6401 17.1872 43.6401 27.1191C43.6401 27.1205 43.6401 27.1205 43.6401 27.1219C43.6401 37.051 35.5906 45.1004 25.6616 45.1004C25.6601 45.1004 25.6587 45.1004 25.6587 45.1004L25.6573 45.1018ZM32.3197 24.8576C30.5594 23.685 28.4058 22.9709 26.0875 22.9297H26.0775L27.3396 17.2525L31.3572 18.1582C31.3586 19.1421 32.1565 19.9399 33.1403 19.9428C33.1446 19.9428 33.1488 19.9428 33.1545 19.9428C34.1511 19.9428 34.9603 19.135 34.9603 18.137C34.9603 17.1389 34.1525 16.3312 33.1545 16.3312C32.4503 16.3312 31.8413 16.7343 31.5432 17.3221L31.5389 17.332L27.1011 16.3454C27.0755 16.3397 27.0471 16.3368 27.0173 16.3368C26.8172 16.3368 26.6482 16.4745 26.6014 16.6605V16.6634L25.2158 22.9283C22.9003 22.9893 20.7652 23.7063 18.9722 24.8988L19.0162 24.8718C18.5789 24.4161 17.9642 24.1321 17.2842 24.1321C15.9582 24.1321 14.885 25.2068 14.885 26.5314C14.885 27.4712 15.4244 28.2846 16.2124 28.6779L16.2266 28.6836C16.1485 29.0214 16.1045 29.409 16.103 29.8079C16.103 33.6225 20.3961 36.7103 25.6743 36.7103C30.9739 36.7103 35.2669 33.6211 35.2669 29.8079C35.2669 29.8008 35.2669 29.7923 35.2669 29.7838C35.2669 29.3849 35.2173 28.9987 35.1221 28.6296L35.1292 28.6623C35.9186 28.2605 36.4509 27.4541 36.4509 26.5228C36.4509 25.2011 35.3791 24.1307 34.0588 24.1307C34.056 24.1307 34.0517 24.1307 34.0489 24.1307C33.3731 24.1321 32.7627 24.409 32.324 24.8548L32.3197 24.8576ZM19.8992 28.9249C19.8992 28.9221 19.8992 28.9178 19.8992 28.9135C19.8992 27.9226 20.7027 27.1191 21.6936 27.1191C22.6846 27.1191 23.4881 27.9226 23.4881 28.9135C23.4881 29.9002 22.6902 30.7023 21.705 30.708C21.7036 30.708 21.7022 30.708 21.7007 30.708C20.7127 30.708 19.9091 29.9116 19.8992 28.9249V28.9235V28.9249ZM29.6522 32.5578C29.736 32.6359 29.7885 32.7466 29.7885 32.8701C29.7885 32.9936 29.736 33.1044 29.6522 33.181C28.5349 33.9576 27.1508 34.4204 25.6573 34.4204C24.1638 34.4204 22.7797 33.9561 21.6383 33.1654L21.661 33.181C21.5772 33.1029 21.5247 32.9922 21.5247 32.8687C21.5247 32.7452 21.5772 32.6345 21.661 32.5578C21.7391 32.484 21.8455 32.4385 21.962 32.4385C22.0784 32.4385 22.1848 32.484 22.2629 32.5578C23.224 33.1739 24.3981 33.5388 25.6559 33.5388C26.9137 33.5388 28.0878 33.1725 29.0744 32.5422L29.0489 32.5578C29.1269 32.484 29.2334 32.4371 29.3498 32.4371C29.4662 32.4371 29.5727 32.4825 29.6508 32.5578H29.6522ZM31.414 28.9249C31.4083 29.9116 30.6062 30.708 29.6196 30.708C28.6286 30.708 27.8251 29.9045 27.8251 28.9135C27.8251 27.9255 28.623 27.1248 29.6096 27.1191C29.6125 27.1191 29.6153 27.1191 29.6181 27.1191C30.6105 27.1191 31.414 27.924 31.414 28.915C31.414 28.9178 31.414 28.9206 31.414 28.9249Z" fill="black"/>
</svg>
