<svg width="781" height="156" viewBox="0 0 781 156" fill="none" xmlns="http://www.w3.org/2000/svg">
<path d="M22.2989 130.392C24.8909 130.392 26.9629 130.984 28.5149 132.168C30.0829 133.336 30.8669 135.488 30.8669 138.624C30.8669 141.696 30.0989 143.864 28.5629 145.128C27.0429 146.376 25.0909 147 22.7069 147H17.9549V130.392H22.2989ZM21.4829 132.984V144.408H22.9229C24.2829 144.408 25.3309 143.992 26.0669 143.16C26.8189 142.312 27.1949 140.8 27.1949 138.624C27.1949 137.12 27.0029 135.952 26.6189 135.12C26.2509 134.288 25.7549 133.728 25.1309 133.44C24.5069 133.136 23.7469 132.984 22.8509 132.984H21.4829ZM38.8443 133.896C40.7483 133.896 42.2363 134.496 43.3083 135.696C44.3803 136.88 44.9163 138.528 44.9163 140.64C44.9163 141.984 44.6683 143.168 44.1723 144.192C43.6923 145.2 42.9883 145.984 42.0603 146.544C41.1483 147.104 40.0683 147.384 38.8203 147.384C36.9163 147.384 35.4203 146.792 34.3323 145.608C33.2603 144.408 32.7243 142.752 32.7243 140.64C32.7243 139.296 32.9643 138.12 33.4443 137.112C33.9403 136.088 34.6443 135.296 35.5563 134.736C36.4843 134.176 37.5803 133.896 38.8443 133.896ZM38.8443 136.44C37.9803 136.44 37.3323 136.784 36.9003 137.472C36.4843 138.144 36.2763 139.2 36.2763 140.64C36.2763 142.08 36.4843 143.144 36.9003 143.832C37.3323 144.504 37.9723 144.84 38.8203 144.84C39.6683 144.84 40.3003 144.504 40.7163 143.832C41.1483 143.144 41.3643 142.08 41.3643 140.64C41.3643 139.2 41.1563 138.144 40.7403 137.472C40.3243 136.784 39.6923 136.44 38.8443 136.44ZM63.4199 134.28L60.7079 147H56.5559L54.7319 137.328L52.9079 147H48.8039L46.0199 134.28H49.4519L51.0119 144.48L53.1239 134.28H56.5319L58.4279 144.48L60.1559 134.28H63.4199ZM72.401 133.896C73.521 133.896 74.393 134.24 75.017 134.928C75.641 135.6 75.953 136.536 75.953 137.736V147H72.545V138.312C72.545 137.624 72.425 137.144 72.185 136.872C71.961 136.584 71.617 136.44 71.153 136.44C70.673 136.44 70.233 136.592 69.833 136.896C69.449 137.184 69.073 137.624 68.705 138.216V147H65.297V134.28H68.249L68.513 135.888C69.041 135.232 69.617 134.736 70.241 134.4C70.881 134.064 71.601 133.896 72.401 133.896ZM82.3634 147.384C81.3234 147.384 80.5154 147.088 79.9394 146.496C79.3634 145.888 79.0754 145.032 79.0754 143.928V129.216L82.4834 128.832V143.832C82.4834 144.392 82.7154 144.672 83.1794 144.672C83.4354 144.672 83.6594 144.624 83.8514 144.528L84.5474 146.952C83.8914 147.24 83.1634 147.384 82.3634 147.384ZM91.5318 133.896C93.4358 133.896 94.9238 134.496 95.9958 135.696C97.0678 136.88 97.6038 138.528 97.6038 140.64C97.6038 141.984 97.3558 143.168 96.8598 144.192C96.3798 145.2 95.6758 145.984 94.7478 146.544C93.8358 147.104 92.7558 147.384 91.5078 147.384C89.6038 147.384 88.1078 146.792 87.0198 145.608C85.9478 144.408 85.4118 142.752 85.4118 140.64C85.4118 139.296 85.6518 138.12 86.1318 137.112C86.6278 136.088 87.3318 135.296 88.2438 134.736C89.1718 134.176 90.2678 133.896 91.5318 133.896ZM91.5318 136.44C90.6678 136.44 90.0198 136.784 89.5878 137.472C89.1718 138.144 88.9638 139.2 88.9638 140.64C88.9638 142.08 89.1718 143.144 89.5878 143.832C90.0198 144.504 90.6598 144.84 91.5078 144.84C92.3558 144.84 92.9878 144.504 93.4038 143.832C93.8358 143.144 94.0518 142.08 94.0518 140.64C94.0518 139.2 93.8438 138.144 93.4278 137.472C93.0118 136.784 92.3798 136.44 91.5318 136.44ZM109.681 143.472C109.681 143.968 109.753 144.336 109.897 144.576C110.041 144.8 110.281 144.968 110.617 145.08L109.897 147.336C109.145 147.272 108.529 147.096 108.049 146.808C107.585 146.52 107.225 146.072 106.969 145.464C106.137 146.744 104.865 147.384 103.153 147.384C101.889 147.384 100.881 147.024 100.129 146.304C99.393 145.568 99.025 144.616 99.025 143.448C99.025 142.056 99.529 140.992 100.537 140.256C101.545 139.52 102.993 139.152 104.881 139.152H106.345V138.528C106.345 137.744 106.169 137.2 105.817 136.896C105.465 136.592 104.881 136.44 104.065 136.44C103.169 136.44 102.049 136.664 100.705 137.112L99.937 134.832C101.521 134.208 103.089 133.896 104.641 133.896C106.369 133.896 107.641 134.272 108.457 135.024C109.273 135.76 109.681 136.864 109.681 138.336V143.472ZM104.089 144.936C105.049 144.936 105.801 144.464 106.345 143.52V141.096H105.217C103.377 141.096 102.457 141.784 102.457 143.16C102.457 143.72 102.593 144.16 102.865 144.48C103.153 144.784 103.561 144.936 104.089 144.936ZM124.102 129.216V147H121.102L120.91 145.44C120.014 146.736 118.798 147.384 117.262 147.384C115.694 147.384 114.494 146.784 113.662 145.584C112.846 144.368 112.438 142.72 112.438 140.64C112.438 139.328 112.646 138.168 113.062 137.16C113.494 136.136 114.102 135.336 114.886 134.76C115.67 134.184 116.574 133.896 117.598 133.896C118.782 133.896 119.814 134.32 120.694 135.168V128.832L124.102 129.216ZM118.27 144.84C118.766 144.84 119.206 144.72 119.59 144.48C119.974 144.224 120.342 143.832 120.694 143.304V137.616C120.358 137.216 120.014 136.92 119.662 136.728C119.326 136.52 118.934 136.416 118.486 136.416C117.702 136.416 117.086 136.76 116.638 137.448C116.206 138.136 115.99 139.2 115.99 140.64C115.99 142.16 116.182 143.24 116.566 143.88C116.966 144.52 117.534 144.84 118.27 144.84ZM142.169 147L141.233 143.28H136.025L135.089 147H131.417L136.529 130.392H140.825L145.913 147H142.169ZM136.697 140.664H140.561L138.617 133.008L136.697 140.664ZM154.239 133.896C155.839 133.896 157.023 134.488 157.791 135.672C158.575 136.84 158.967 138.488 158.967 140.616C158.967 141.912 158.767 143.072 158.367 144.096C157.967 145.12 157.383 145.928 156.615 146.52C155.863 147.096 154.967 147.384 153.927 147.384C152.631 147.384 151.583 146.928 150.783 146.016V151.896L147.375 152.28V134.28H150.375L150.543 135.768C151.023 135.144 151.583 134.68 152.223 134.376C152.879 134.056 153.551 133.896 154.239 133.896ZM152.919 144.84C154.583 144.84 155.415 143.44 155.415 140.64C155.415 139.104 155.231 138.016 154.863 137.376C154.495 136.736 153.935 136.416 153.183 136.416C152.703 136.416 152.255 136.568 151.839 136.872C151.439 137.16 151.087 137.552 150.783 138.048V143.592C151.327 144.424 152.039 144.84 152.919 144.84ZM168.536 133.896C170.136 133.896 171.32 134.488 172.088 135.672C172.872 136.84 173.264 138.488 173.264 140.616C173.264 141.912 173.064 143.072 172.664 144.096C172.264 145.12 171.68 145.928 170.912 146.52C170.16 147.096 169.264 147.384 168.224 147.384C166.928 147.384 165.88 146.928 165.08 146.016V151.896L161.672 152.28V134.28H164.672L164.84 135.768C165.32 135.144 165.88 134.68 166.52 134.376C167.176 134.056 167.848 133.896 168.536 133.896ZM167.216 144.84C168.88 144.84 169.712 143.44 169.712 140.64C169.712 139.104 169.528 138.016 169.16 137.376C168.792 136.736 168.232 136.416 167.48 136.416C167 136.416 166.552 136.568 166.136 136.872C165.736 137.16 165.384 137.552 165.08 138.048V143.592C165.624 144.424 166.336 144.84 167.216 144.84Z" fill="black"/>
<circle cx="88" cy="60" r="38.7538" stroke="url(#paint0_linear_125_399)" stroke-width="2.49231"/>
<g clip-path="url(#clip0_125_399)">
<path fill-rule="evenodd" clip-rule="evenodd" d="M105.125 73.1537C105.225 73.1693 105.321 73.2041 105.411 73.2538C105.498 73.3015 105.578 73.3631 105.648 73.4348C105.721 73.5099 105.786 73.5973 105.839 73.6935C105.894 73.7932 105.935 73.8965 105.959 73.9989C105.983 74.0976 105.993 74.2002 105.987 74.303L105.986 74.3277C105.979 74.4196 105.956 74.5123 105.918 74.6024C105.879 74.6935 105.821 74.7829 105.744 74.867C105.685 74.9304 105.642 74.9759 105.612 75.0034C105.585 75.0281 105.559 75.0491 105.53 75.0681L105.529 75.0699C105.501 75.088 105.458 75.1115 105.396 75.1416C105.32 75.1789 105.237 75.2157 105.142 75.2562L104.916 75.3529L104.914 75.3538C104.131 75.6888 102.144 76.5382 101.897 76.5927C101.757 76.6236 101.626 76.6237 101.509 76.5993C101.385 76.5733 101.273 76.5196 101.177 76.4469C101.128 76.4099 101.085 76.3698 101.047 76.3277C101.006 76.2833 100.968 76.2324 100.933 76.176C100.9 76.1251 100.871 76.0672 100.845 76.0037C100.821 75.9436 100.801 75.8787 100.786 75.8097C100.749 75.6447 100.748 75.467 100.791 75.2888C100.832 75.1173 100.911 74.9463 101.034 74.7843C101.083 74.7193 101.242 74.6284 101.449 74.5279C101.707 74.4024 102.003 74.2829 102.283 74.1704C102.315 74.1573 102.359 74.1378 102.407 74.1163C102.52 74.0661 102.657 74.0052 102.722 73.9904C102.841 73.9398 102.993 73.8721 103.159 73.7984L103.167 73.7945L103.193 73.7833L103.204 73.7783C103.747 73.5363 104.434 73.2309 104.812 73.1603C104.923 73.1396 105.028 73.1385 105.125 73.1537ZM70.0868 56.8011L70.0769 56.8212L70.0294 56.9081L70.0014 56.9669C69.9667 57.053 69.9299 57.1383 69.8929 57.2237C69.8543 57.3131 69.8156 57.4025 69.7795 57.493L69.7517 57.5732L69.7141 57.6695L69.713 57.6745L69.6636 57.7888L69.6006 57.925C69.5796 57.9757 69.5598 58.0271 69.5409 58.0785C69.4237 58.4674 69.214 58.9671 69.017 59.4367L69.0143 59.443L69.0157 59.4437L69.0116 59.4495C69.0072 59.4599 69.0029 59.4703 68.9984 59.481C68.9624 59.5664 68.9174 59.6734 68.794 59.9791C68.7164 60.1709 68.6415 60.3625 68.5686 60.5531L68.1977 61.5328C68.137 61.6919 68.0819 61.8357 68.0359 61.9529C68.0051 62.0313 67.9465 62.1898 67.8707 62.3983L67.6188 63.0969L67.6168 63.0977L67.6182 63.0983L67.617 63.1016C67.2398 64.1476 66.7399 65.5339 66.6486 65.6665C66.3148 66.1515 66.0394 66.6861 65.8194 67.2517C65.5879 67.8467 65.4177 68.4732 65.3045 69.1106C65.1885 69.7626 65.1308 70.4397 65.1267 71.1156C65.1225 71.8071 65.1756 72.4919 65.2806 73.1426C65.3748 73.7269 65.5605 74.362 65.7003 74.84L65.7004 74.8404L65.7045 74.8544C65.398 75.1869 65.0572 75.5415 64.7078 75.9051C63.9761 76.6664 63.2067 77.4669 62.6359 78.1855C62.6123 78.2124 62.5837 78.2427 62.5527 78.2744L62.4428 78.3844H62.4411L62.4389 78.3882L62.4388 78.3882C62.3449 78.4813 62.2507 78.5748 62.1413 78.7018L59.7072 81.3882C59.685 81.413 59.6376 81.4617 59.5758 81.5239L59.3632 81.7357C59.1186 81.9781 58.836 82.2582 58.5948 82.5411C58.3261 82.8562 58.1058 83.1801 58.0257 83.4795L57.8462 84.1495L60.0693 85.9981L64.9635 80.6741C65.1442 80.5036 65.3984 80.2348 65.6878 79.9182C66.0594 79.5117 66.3533 79.1819 66.6413 78.8588L66.6579 78.8402L66.6819 78.8132C66.9886 78.4691 67.29 78.1309 67.5228 77.875C67.7725 77.6007 67.9741 77.3858 68.0827 77.2855L68.1637 77.2045L69.5985 75.5722C69.5917 75.5526 69.5768 75.5108 69.5579 75.458C69.4956 75.2838 69.3902 74.9891 69.3902 74.9707C69.3468 74.8458 69.3109 74.7509 69.2786 74.6711C69.2405 74.5775 69.2084 74.503 69.1758 74.4275L69.1757 74.4271L69.1746 74.4246L69.1743 74.424C69.0929 74.2352 69.0084 74.0392 68.9576 73.8738C68.7725 73.2711 68.6422 72.667 68.5744 72.0678C68.5093 71.4922 68.5017 70.9234 68.5583 70.367C68.6118 69.8417 68.7232 69.3244 68.898 68.8198C69.0655 68.3362 69.2947 67.859 69.5905 67.392L69.616 67.3442L69.68 67.2087L69.697 67.166C70.6104 64.5587 71.385 62.7506 72.1942 60.862L72.1948 60.8604L72.2019 60.8438C72.5448 60.0434 72.8943 59.2277 73.2814 58.2851C73.6423 57.4066 74.0229 56.4472 74.4362 55.3433L74.6206 55.0275L74.8081 54.6984L74.8042 54.696L74.8497 54.6128C75.0032 54.3328 75.1446 54.0722 75.2608 53.8571C75.3621 53.6692 75.4657 53.4751 75.5613 53.2929C75.6327 53.1572 75.6997 53.0282 75.7577 52.9144L75.9427 52.7759L75.9754 52.7672C76.0162 52.757 76.0546 52.7483 76.0882 52.7419C76.1211 52.7356 76.1511 52.7307 76.1752 52.7278C76.2343 52.7211 76.2936 52.7189 76.3514 52.7204C76.4138 52.7222 76.4855 52.7293 76.5629 52.7406C76.6436 52.7524 76.7201 52.7682 76.7897 52.7866C76.8581 52.8048 76.9253 52.8273 76.9883 52.853L77.1306 52.911C77.6514 53.1557 77.8566 53.4543 77.8985 53.7778C77.9511 54.1835 77.7863 54.694 77.6243 55.1957L77.5202 55.5162C77.3803 55.9642 77.2466 56.376 77.113 56.7876L77.0931 56.8488L77.0781 56.8952L77.0732 56.9104C77.0416 57.0082 77.0004 57.1355 76.7735 57.848L76.5599 58.515C76.51 58.6697 76.4562 58.8326 76.3943 59.0169L76.3232 59.2276L76.3147 59.2528C76.2176 59.5403 76.1151 59.8435 76.034 60.0959L74.8527 63.6863L74.8357 63.7665L74.805 63.9993L74.8015 64.0744C74.8174 64.4368 75.2299 65.0769 75.4442 65.4094L75.4482 65.417L75.4496 65.4161L75.5941 65.6422C75.6543 65.7422 75.7158 65.8489 75.7785 65.9609C75.8674 66.1198 75.9494 66.2738 76.0269 66.4248C76.0909 66.5494 76.1716 66.7137 76.2622 66.9012C76.3427 67.0683 76.4286 67.2491 76.5163 67.4349C76.8638 68.1712 77.1702 68.9616 77.4228 69.7891C77.6678 70.5914 77.864 71.4313 78.0003 72.2938C78.1306 73.1184 78.2071 73.9643 78.2197 74.8182C78.2317 75.6311 78.1861 76.454 78.0747 77.2762C78.0162 77.7076 77.9439 78.1026 77.8583 78.4761C77.7726 78.8501 77.6745 79.1986 77.5647 79.5381C77.4572 79.8698 77.3302 80.2137 77.1867 80.5776C77.0545 80.9132 76.892 81.3025 76.7145 81.7255C76.4816 82.2804 76.1922 82.767 75.8997 83.1889C75.6087 83.6088 75.3006 83.982 75.0441 84.2927L75.0396 84.2981L75.039 84.2989C74.8595 84.5164 74.7006 84.7088 74.5657 84.8945C74.4184 85.0977 74.3027 85.2893 74.2278 85.4857L73.9261 86.276L74.6243 86.7649C74.7944 86.8839 75.1026 87.1235 75.3895 87.3466L75.3936 87.3497H75.3954L75.3971 87.3524L76.1462 87.9348L77.1844 87.1604L77.1562 87.1228C77.1904 87.0846 77.2265 87.0432 77.264 86.9989C77.3812 86.8604 77.5245 86.6809 77.673 86.4895C77.7699 86.3645 77.8821 86.217 77.9976 86.0633L78.186 85.8105L82.7703 85.8042C85.6602 85.8008 88.5782 85.7973 91.483 85.8038L91.4599 85.8353C91.3182 86.0269 91.1826 86.1907 91.075 86.3061C90.8022 86.5987 90.5141 86.8544 90.211 87.0793C89.904 87.307 89.5817 87.5042 89.2444 87.6766C88.9003 87.8525 88.5288 88.0079 88.1323 88.1477C87.7372 88.2872 87.3198 88.4093 86.8815 88.5203C86.6393 88.5816 86.3972 88.633 86.154 88.6759C85.9064 88.7195 85.6649 88.7539 85.4263 88.7803C85.1688 88.8089 84.9143 88.83 84.6596 88.8456C84.3875 88.8621 84.1275 88.8729 83.8728 88.8793C83.7251 88.8831 83.5758 88.8861 83.4316 88.8877C83.2811 88.8893 83.1284 88.8896 82.9774 88.8878C82.8486 88.8866 82.7092 88.8828 82.5594 88.8762C82.4354 88.8707 82.2951 88.8617 82.1359 88.848C82.0162 88.8377 81.9164 88.8245 81.8013 88.8092L81.8012 88.8092L81.7901 88.8078C81.213 88.731 80.4128 88.6246 79.9988 88.8029C79.7868 88.894 78.9087 89.6419 78.7305 89.7938L78.7288 89.7952L78.7218 89.8012C78.6572 89.8562 78.5827 89.9221 78.5031 89.9933C78.393 90.0916 78.3559 90.126 78.3324 90.1477C78.3249 90.1547 78.3188 90.1604 78.3121 90.1665L78.3094 90.1675L78.3079 90.1688C78.1253 90.3354 77.9457 90.4992 77.8049 90.6075L77.8041 90.6064L77.7035 90.6836L77.702 90.6848C77.5497 90.8017 77.4584 90.8717 77.2551 91.0441C77.0426 91.2243 76.9516 91.3038 76.8753 91.3705C76.8614 91.3826 76.848 91.3943 76.8345 91.4061L76.7708 91.4614L73.1591 94.4575L73.5108 95.2177C73.566 95.3368 73.6355 95.4577 73.7145 95.5773V95.5791C73.7971 95.7042 73.888 95.8238 73.9818 95.9354H73.9835C74.0882 96.0601 74.1912 96.1707 74.2872 96.2664C74.4106 96.3892 74.5246 96.4916 74.6187 96.5695L75.2734 97.1118L75.9616 96.6037C76.0321 96.5517 76.095 96.5025 76.1538 96.4551C76.2121 96.408 76.2548 96.3721 76.2934 96.3396C76.3063 96.3288 76.3188 96.3183 76.3312 96.3079L76.509 96.1651L77.3198 95.4473L77.3243 95.4456C77.3592 95.4145 77.3691 95.4071 77.3785 95.4C77.4187 95.3699 77.4589 95.3398 77.4816 95.3217C77.5213 95.2899 77.5626 95.2549 77.6072 95.2139C77.6469 95.1775 77.6823 95.1475 77.7157 95.1211C77.7608 95.0851 77.7898 95.0635 77.8184 95.0422L77.8213 95.0401C77.8654 95.0074 77.9103 94.974 77.9573 94.9378C78.0098 94.8973 78.0616 94.856 78.1109 94.8142C78.2114 94.7291 78.298 94.6461 78.382 94.5658L78.3847 94.5631L78.3932 94.5549C78.4572 94.4935 78.5193 94.4345 78.5754 94.3915C79.2987 93.8371 80.2154 93.0322 80.9525 92.385L80.9591 92.3792C81.0066 92.338 81.0538 92.2963 81.101 92.2546C81.1303 92.2288 81.1596 92.203 81.1889 92.1773C82.1534 92.2769 83.1322 92.3182 84.1081 92.2892C85.084 92.2603 86.0509 92.1615 86.9912 91.9812C87.8943 91.808 88.7769 91.5595 89.6245 91.2255C90.4299 90.9082 91.206 90.5118 91.9404 90.028C92.3691 89.7454 92.7603 89.4328 93.1165 89.0948C93.4906 88.7397 93.8275 88.3573 94.1299 87.9526C94.3955 87.5973 94.6395 87.2167 94.8633 86.8154C95.0461 86.4878 95.2133 86.1485 95.3657 85.8001C95.625 85.7976 95.8842 85.7968 96.143 85.7971C96.4754 85.7974 96.8106 85.7998 97.145 85.8022L97.2113 85.8027L98.4055 85.8109L98.4072 85.8126C98.6211 85.8126 98.7269 85.8132 98.7781 85.8142C98.8659 85.8158 98.9608 85.8184 99.0578 85.821L99.0775 85.8216L99.0895 85.8233V85.8219C100.187 85.8518 101.469 85.8846 102.39 85.4263C102.686 85.2788 102.971 85.0964 103.23 84.8767C103.473 84.6715 103.696 84.4315 103.889 84.1544C104.07 83.8948 104.222 83.6062 104.337 83.2872C104.444 82.9887 104.518 82.6642 104.552 82.3131C104.627 81.5408 104.608 80.6265 104.59 79.7497C104.59 79.6302 104.586 79.5092 104.583 79.3886C104.582 79.3276 104.58 79.2667 104.579 79.2061C104.885 79.0799 105.195 78.9445 105.502 78.8102L105.522 78.8016L105.911 78.6332C106.063 78.5677 106.205 78.507 106.326 78.4564C106.591 78.3464 106.822 78.2422 107.036 78.1287C107.257 78.0118 107.458 77.8854 107.654 77.7341C107.849 77.5842 108.029 77.4165 108.208 77.2165C108.383 77.0203 108.553 76.7991 108.731 76.5388C108.901 76.2898 109.04 76.0035 109.145 75.6975C109.251 75.3909 109.324 75.059 109.361 74.7205C109.397 74.397 109.4 74.0612 109.367 73.7297C109.335 73.4106 109.269 73.0949 109.166 72.7975C109.002 72.3224 108.825 71.9677 108.629 71.6782C108.524 71.524 108.416 71.3899 108.302 71.2676C108.373 71.1855 108.441 71.1004 108.506 71.0126C108.665 70.7978 108.805 70.5684 108.923 70.3292V70.3274C109.077 70.0133 109.196 69.6822 109.275 69.3444C109.352 69.0109 109.393 68.6641 109.392 68.3135C109.391 67.9063 109.333 67.5151 109.233 67.1482C109.124 66.7513 108.966 66.3838 108.775 66.0553C108.67 65.8733 108.55 65.6982 108.419 65.5325L108.42 65.5318C108.381 65.4824 108.341 65.434 108.3 65.3866C108.336 65.3421 108.372 65.2942 108.409 65.2427C108.661 64.8908 108.872 64.5324 109.034 64.1643C109.199 63.7881 109.315 63.3993 109.372 62.9939C109.431 62.5787 109.428 62.1567 109.352 61.7257C109.278 61.2984 109.134 60.8631 108.911 60.4174L108.79 60.1751H108.776C108.688 60.0227 108.59 59.8746 108.483 59.7326C108.322 59.5184 108.143 59.3188 107.947 59.1389L107.939 59.1359C107.742 58.9557 107.531 58.7934 107.305 58.6533C107.086 58.5165 106.847 58.3965 106.591 58.2972C106.253 58.1664 105.94 58.08 105.64 58.0307C105.334 57.9804 105.044 57.9685 104.755 57.9866C104.694 57.9904 104.634 57.9954 104.575 58.0016L104.576 57.0168L104.754 56.9415L104.76 56.9399C105.002 56.8386 105.244 56.7374 105.468 56.6491C105.592 56.6001 105.73 56.5459 105.838 56.5018C105.96 56.4524 106.103 56.393 106.27 56.3216C106.432 56.2521 106.586 56.1837 106.717 56.1211C106.852 56.0567 106.989 55.9858 107.124 55.9082C107.392 55.7542 107.635 55.582 107.853 55.395C108.082 55.1983 108.285 54.9859 108.462 54.7615C108.733 54.4163 108.948 54.0361 109.104 53.6349C109.262 53.2292 109.358 52.8049 109.39 52.3761V52.3743C109.422 51.9434 109.389 51.5048 109.289 51.0723C109.193 50.654 109.032 50.2409 108.805 49.8457C108.652 49.5812 108.472 49.3271 108.264 49.0885C108.061 48.8554 107.832 48.6373 107.579 48.4385C107.237 48.1697 106.878 47.9701 106.504 47.8306C106.131 47.6915 105.748 47.6146 105.356 47.5901C105.139 47.5767 104.923 47.5793 104.707 47.5966L104.575 47.6089L104.576 46.1761C104.569 45.7439 104.564 45.314 104.561 44.8873C104.558 44.4547 104.557 44.0214 104.557 43.5899C104.557 43.1573 104.559 42.7229 104.561 42.2896C104.563 41.8594 104.567 41.4273 104.571 40.9969C104.572 40.8976 104.574 40.7871 104.576 40.6716L104.584 40.3328L104.586 40.3225H104.584C104.625 38.6033 104.658 37.0793 103.42 35.8877C102.801 35.2926 102.123 35.0048 101.383 34.8716C100.679 34.7451 99.9409 34.7635 99.145 34.7835H99.1393L99.1324 34.7837C98.9351 34.7885 98.7278 34.7936 98.2865 34.7936C96.9461 34.7936 96.7775 34.7929 96.6375 34.7923L96.6266 34.7922L96.6047 34.7921L96.5284 34.7917C95.9745 34.7888 95.4197 34.7859 94.8648 34.7861C94.2825 34.7862 93.7025 34.7895 93.1289 34.7991L91.3045 34.7925L91.1721 34.7867L91.1533 34.785H91.0868L91.0613 34.7867C90.0879 34.845 89.0203 34.8289 87.9849 34.8133L87.9778 34.8116V34.8133C87.3539 34.8039 86.7401 34.7946 86.5584 34.7946H77.4903C77.0649 34.7946 76.9161 34.7913 76.7746 34.7881L76.7625 34.7878L76.762 34.7878C76.0498 34.7716 75.4148 34.7571 74.804 34.875C74.1596 34.9991 73.5621 35.2638 72.9747 35.8069C71.682 37.002 71.6925 37.9701 71.7132 39.647H71.7114L71.7132 39.6535L71.7138 40.2628L71.7155 40.2645L71.7274 42.3957L71.7279 42.4934C71.7373 44.2476 71.75 46.6134 71.7466 48.7188C71.7433 50.75 71.7244 52.5403 71.6722 53.2966C71.6236 53.3792 71.5792 53.4621 71.5382 53.5427C71.4925 53.6324 71.4334 53.7551 71.3809 53.8656L71.3324 53.9673L71.3338 53.9679C71.3303 53.975 71.3225 53.9898 71.3132 54.0074C71.2917 54.0482 71.2621 54.1042 71.2593 54.1154L71.259 54.1159C71.2141 54.2043 71.1925 54.2468 71.1585 54.3693C71.1083 54.4521 71.0632 54.5365 71.0228 54.6188C70.9661 54.7342 70.9317 54.8111 70.9026 54.8771C70.7715 55.0396 70.6934 55.2453 70.6608 55.4464L70.6168 55.5673C70.6008 55.6127 70.5819 55.669 70.56 55.7367L70.5491 55.7553H70.5473L70.522 55.8037C70.5001 55.8367 70.4793 55.8715 70.4594 55.9077C70.4397 55.9438 70.4228 55.9787 70.4088 56.0124L70.3848 56.0059L70.2775 56.3637L70.2761 56.3661H70.2446L70.1368 56.6475C70.1264 56.6748 70.1146 56.71 70.101 56.7538L70.0868 56.8011ZM85.3842 43.9513L85.3842 43.9513L85.4908 43.948L93.1346 43.9469V43.9511H93.5712C93.6899 43.9511 94.1591 43.9481 94.8035 43.9439C94.9821 43.9425 95.1608 43.9414 95.3396 43.9403C95.6967 43.9382 96.054 43.936 96.411 43.9316C97.9829 43.919 99.5631 43.9065 101.122 43.9287L101.134 59.1809L100.991 59.2393C100.837 59.3025 100.684 59.3674 100.54 59.43C100.315 59.528 100.096 59.6274 99.9122 59.7167C99.7352 59.8025 99.5822 59.8828 99.4736 59.949C99.0206 60.2251 98.6279 60.5786 98.3064 60.9856C97.977 61.4024 97.7243 61.8721 97.5601 62.369C97.3976 62.8606 97.3193 63.3847 97.3361 63.9167C97.3522 64.4279 97.4564 64.9426 97.6581 65.4388C97.84 65.8859 98.0132 66.2028 98.1881 66.4516C98.2641 66.5597 98.3393 66.6534 98.4148 66.7386C98.3499 66.8131 98.2874 66.8895 98.2277 66.9676C98.0777 67.1639 97.9437 67.3721 97.8275 67.5925C97.6638 67.9036 97.5375 68.2357 97.4539 68.5905C97.3714 68.9392 97.3306 69.3134 97.336 69.715C97.341 70.0885 97.403 70.4715 97.5085 70.8411C97.6182 71.225 97.7771 71.6031 97.9699 71.9483C98.0722 72.1314 98.185 72.3068 98.306 72.4703C98.3407 72.5171 98.376 72.5631 98.4121 72.608C98.3257 72.7086 98.2408 72.8166 98.1595 72.9299C98.0031 73.148 97.8554 73.3929 97.7333 73.6503C97.6346 73.8583 97.5519 74.0779 97.4931 74.3034C97.4559 74.4464 97.4285 74.5914 97.4132 74.7373L81.6321 74.7351L81.6308 74.4514L81.6206 74.3286L81.6121 74.2774L81.6064 74.2498C81.6204 74.065 81.6201 73.8557 81.6084 73.6306C81.5946 73.3612 81.564 73.0632 81.5228 72.754C81.4655 72.3223 81.3886 71.8668 81.3102 71.445C81.1925 70.8123 81.0727 70.2613 81.006 69.9725C80.8956 69.4942 80.7543 68.9961 80.5895 68.4919C80.4194 67.9722 80.2213 67.4382 80.0035 66.9066C79.7808 66.3633 79.5403 65.8298 79.291 65.3232C79.0367 64.8066 78.7727 64.316 78.5086 63.869C78.4722 63.8075 78.4419 63.7602 78.4142 63.7189C78.5059 63.4244 78.6146 63.1176 78.7227 62.8125L78.7305 62.7903L78.7359 62.7753L78.736 62.7749C78.7979 62.6003 78.8598 62.4256 78.9248 62.2359L78.9266 62.2324C79.1483 61.5617 79.427 60.6962 79.7051 59.8323L79.7086 59.8215C80.0205 58.8523 80.3326 57.8832 80.6547 56.9205L80.6598 56.907C80.7447 56.6225 80.7945 56.4724 80.8448 56.321C80.8467 56.3172 80.8478 56.3131 80.849 56.309C80.8497 56.3062 80.8505 56.3035 80.8514 56.3008C81.2496 55.102 81.6754 53.804 81.0992 52.3723C81.0525 52.2563 80.9985 52.1387 80.9376 52.02C80.876 51.8996 80.8116 51.7866 80.7449 51.6808C80.43 51.1819 80.0231 50.7574 79.5617 50.4126C79.0733 50.0472 78.5206 49.7686 77.9499 49.5831C77.3908 49.4014 76.8066 49.3084 76.2409 49.31C75.8542 49.3111 75.4761 49.3563 75.1202 49.4477L75.1216 43.9187L84.8362 43.9045C84.9284 43.9317 85.0093 43.9458 85.0927 43.9521C85.179 43.9585 85.2682 43.9554 85.3842 43.9513ZM86.3047 40.4989L75.1188 40.5101V39.6714H75.1232V38.8111C75.1339 38.5455 75.1708 38.4087 75.2965 38.2993C75.3493 38.2534 75.4529 38.2279 75.5865 38.2128C75.782 38.1906 76.0156 38.1948 76.2628 38.1994L76.2777 38.1997C76.3697 38.2014 76.4647 38.2032 76.5788 38.2038C78.7404 38.2155 80.9069 38.2192 83.0756 38.2191C85.1633 38.2189 87.2527 38.215 89.3421 38.211L89.5829 38.2106H89.6241L89.6244 38.2106C93.0184 38.2041 96.4123 38.1976 99.7976 38.2063C100.157 38.2073 100.461 38.2107 100.698 38.2336C100.875 38.2506 100.995 38.2738 101.045 38.3094C101.058 38.3187 101.075 38.3688 101.098 38.4708C101.139 38.6557 101.159 38.9239 101.158 39.2954L101.158 40.5115L86.3047 40.4989ZM93.7526 78.1524L98.1771 78.1681L98.226 78.2354C98.2955 78.329 98.3691 78.42 98.4447 78.5071C98.6044 78.6911 98.7778 78.8652 98.9437 79.015C99.1272 79.1801 99.3108 79.3236 99.4652 79.4241C99.8845 79.6969 100.28 79.8467 100.646 79.9272C100.835 79.9688 101.013 79.9917 101.181 80.0033L101.184 80.3906C101.186 80.6349 101.185 80.8859 101.181 81.1244C101.177 81.3811 101.17 81.6232 101.159 81.822C101.151 81.9682 101.142 82.0685 101.134 82.0997H101.133C101.124 82.1334 101.113 82.1635 101.1 82.1895C101.088 82.2142 101.075 82.2365 101.06 82.2543C101.044 82.2724 101.023 82.2916 100.996 82.311C100.967 82.3326 100.931 82.3531 100.891 82.3723C100.781 82.4243 100.435 82.4153 100.106 82.4068H100.106L100.096 82.4051V82.4065H100.093C99.9982 82.404 99.9199 82.4016 99.8605 82.3997C99.797 82.3977 99.7551 82.3964 99.7374 82.3964H99.3009V82.4007L80.1599 82.3986C80.3182 82.0209 80.4776 81.5969 80.6291 81.1475C80.7829 80.6913 80.9282 80.2087 81.0559 79.7221C81.144 79.3855 81.2239 79.0468 81.2918 78.7139C81.3304 78.5248 81.3651 78.3382 81.3955 78.1552L93.7526 78.1524ZM88.5639 81.7346L93.2055 81.7266C93.8068 81.7256 94.2937 81.2379 94.2937 80.6366V79.9355C94.2937 79.2445 93.7314 78.6854 93.0405 78.6893L88.5549 78.7147C87.8696 78.7185 87.316 79.2751 87.3158 79.9604L87.3156 80.488C87.3154 81.1773 87.8747 81.7358 88.5639 81.7346ZM105.145 67.2968C105.287 67.325 105.421 67.3819 105.539 67.4615C105.597 67.5004 105.648 67.542 105.692 67.5851L105.693 67.5868C105.738 67.6308 105.779 67.6779 105.813 67.7272C105.85 67.7805 105.881 67.8352 105.905 67.8905C105.927 67.9433 105.946 68.0023 105.96 68.0667C105.989 68.2054 105.988 68.3608 105.946 68.528C105.905 68.6948 105.823 68.8752 105.695 69.0656C105.523 69.3197 104.497 69.6641 103.742 69.917C103.535 69.9865 103.34 70.0521 103.244 70.0863C103.095 70.1397 102.954 70.1946 102.821 70.2556L102.601 70.3512L101.975 70.6157L101.763 70.7016C101.69 70.7312 101.622 70.7457 101.56 70.7473C101.497 70.7489 101.436 70.7377 101.379 70.716C101.315 70.6918 101.253 70.6546 101.193 70.6069C101.126 70.5525 101.064 70.4866 101.01 70.4122C100.95 70.3279 100.898 70.2321 100.857 70.1281C100.816 70.0248 100.788 69.9175 100.775 69.8096C100.756 69.6634 100.764 69.5099 100.802 69.3569C100.837 69.2166 100.899 69.0781 100.992 68.9482C101.053 68.8628 101.204 68.7685 101.398 68.6707C101.619 68.5599 101.919 68.4409 102.217 68.3228L102.219 68.322L102.355 68.2674L102.616 68.1595C102.78 68.0918 102.952 68.0168 103.142 67.9338L103.162 67.925L103.169 67.9217L103.185 67.915C103.483 67.7847 103.825 67.6354 104.083 67.5298L104.084 67.5312C104.365 67.4166 104.608 67.3249 104.731 67.2987C104.87 67.2689 105.011 67.27 105.145 67.2968ZM105.134 61.4229C105.283 61.4472 105.421 61.5022 105.539 61.5808C105.593 61.6165 105.643 61.6557 105.687 61.6983C105.73 61.7395 105.769 61.7848 105.803 61.8332H105.805C105.836 61.8778 105.866 61.9306 105.893 61.9908C105.92 62.0499 105.94 62.108 105.954 62.164V62.1657C105.987 62.3028 105.989 62.4568 105.953 62.6209C105.918 62.7834 105.846 62.9544 105.731 63.1281C105.643 63.2603 105.371 63.41 105.034 63.5583C104.639 63.7319 104.184 63.8857 103.79 64.0184L103.78 64.0219C103.458 64.1305 103.171 64.2277 102.918 64.3376C102.615 64.4687 102.32 64.5896 101.999 64.7205L101.992 64.7226L101.825 64.791C101.731 64.8298 101.644 64.8485 101.566 64.8503C101.489 64.852 101.418 64.8378 101.354 64.811C101.292 64.7847 101.23 64.7442 101.17 64.6928C101.103 64.6353 101.041 64.565 100.986 64.4857C100.926 64.3987 100.876 64.3027 100.837 64.2017C100.798 64.1011 100.77 63.9946 100.754 63.8859C100.736 63.7491 100.74 63.6122 100.77 63.4857C100.795 63.3798 100.838 63.2821 100.904 63.1999C101.16 62.8781 101.489 62.7435 101.956 62.5528H101.96L101.961 62.5508C102.163 62.4685 102.381 62.3793 102.549 62.3043C102.733 62.2223 102.754 62.2137 102.762 62.2105L102.762 62.2105L102.774 62.2037L103.193 62.0177L103.193 62.0165C103.386 61.931 103.593 61.841 103.804 61.7537C104.141 61.6139 104.456 61.4942 104.662 61.4443L104.667 61.4436C104.831 61.4042 104.988 61.3993 105.134 61.4229ZM104.579 53.3301V51.0654C104.706 51.0208 104.824 50.9874 104.933 50.9787C105.078 50.967 105.237 50.9995 105.437 51.113C105.529 51.1656 105.621 51.2334 105.704 51.3168H105.706C105.774 51.3847 105.835 51.4637 105.882 51.5527C105.921 51.6269 105.951 51.7127 105.968 51.8106C105.985 51.9076 105.989 52.0134 105.978 52.1281C105.968 52.2342 105.945 52.3302 105.913 52.4162C105.88 52.5025 105.837 52.5798 105.785 52.6484C105.726 52.7259 105.655 52.7948 105.575 52.855C105.481 52.9253 105.38 52.9827 105.275 53.0282L104.832 53.2202H104.828L104.579 53.3301ZM96.8812 54.1119C97.3678 53.6253 97.3678 52.8362 96.8812 52.3496C96.3945 51.8629 95.6055 51.8629 95.1189 52.3496L88 59.4684L84.5735 56.0419C84.0868 55.5552 83.2978 55.5552 82.8112 56.0419C82.3245 56.5285 82.3245 57.3176 82.8112 57.8042L87.1189 62.1119C87.3526 62.3456 87.6695 62.4769 88 62.4769C88.3305 62.4769 88.6475 62.3456 88.8812 62.1119L96.8812 54.1119Z" fill="url(#paint1_linear_125_399)"/>
</g>
<path d="M315.923 128.008C316.963 128.008 317.867 128.16 318.635 128.464C319.403 128.752 320.155 129.2 320.891 129.808L319.139 131.848C318.179 131.064 317.171 130.672 316.115 130.672C314.931 130.672 313.987 131.16 313.283 132.136C312.595 133.096 312.251 134.608 312.251 136.672C312.251 138.688 312.595 140.184 313.283 141.16C313.987 142.12 314.939 142.6 316.139 142.6C316.763 142.6 317.331 142.488 317.843 142.264C318.355 142.024 318.891 141.688 319.451 141.256L321.083 143.296C320.491 143.904 319.755 144.408 318.875 144.808C318.011 145.192 317.051 145.384 315.995 145.384C314.507 145.384 313.203 145.048 312.083 144.376C310.963 143.704 310.091 142.72 309.467 141.424C308.843 140.112 308.531 138.528 308.531 136.672C308.531 134.864 308.851 133.312 309.491 132.016C310.131 130.704 311.011 129.712 312.131 129.04C313.251 128.352 314.515 128.008 315.923 128.008ZM327.893 131.896C329.797 131.896 331.285 132.496 332.357 133.696C333.429 134.88 333.965 136.528 333.965 138.64C333.965 139.984 333.717 141.168 333.221 142.192C332.741 143.2 332.037 143.984 331.109 144.544C330.197 145.104 329.117 145.384 327.869 145.384C325.965 145.384 324.469 144.792 323.381 143.608C322.309 142.408 321.773 140.752 321.773 138.64C321.773 137.296 322.013 136.12 322.493 135.112C322.989 134.088 323.693 133.296 324.605 132.736C325.533 132.176 326.629 131.896 327.893 131.896ZM327.893 134.44C327.029 134.44 326.381 134.784 325.949 135.472C325.533 136.144 325.325 137.2 325.325 138.64C325.325 140.08 325.533 141.144 325.949 141.832C326.381 142.504 327.021 142.84 327.869 142.84C328.717 142.84 329.349 142.504 329.765 141.832C330.197 141.144 330.413 140.08 330.413 138.64C330.413 137.2 330.205 136.144 329.789 135.472C329.373 134.784 328.741 134.44 327.893 134.44ZM350.309 131.896C351.317 131.896 352.125 132.24 352.733 132.928C353.357 133.616 353.669 134.552 353.669 135.736V145H350.261V136.312C350.261 135.064 349.845 134.44 349.013 134.44C348.565 134.44 348.173 134.584 347.837 134.872C347.501 135.16 347.157 135.608 346.805 136.216V145H343.397V136.312C343.397 135.064 342.981 134.44 342.149 134.44C341.701 134.44 341.309 134.592 340.973 134.896C340.637 135.184 340.301 135.624 339.965 136.216V145H336.557V132.28H339.509L339.773 133.864C340.253 133.224 340.789 132.736 341.381 132.4C341.989 132.064 342.685 131.896 343.469 131.896C344.189 131.896 344.813 132.08 345.341 132.448C345.869 132.8 346.253 133.304 346.493 133.96C347.021 133.272 347.589 132.76 348.197 132.424C348.821 132.072 349.525 131.896 350.309 131.896ZM363.765 131.896C365.365 131.896 366.549 132.488 367.317 133.672C368.101 134.84 368.493 136.488 368.493 138.616C368.493 139.912 368.293 141.072 367.893 142.096C367.493 143.12 366.909 143.928 366.141 144.52C365.389 145.096 364.493 145.384 363.453 145.384C362.157 145.384 361.109 144.928 360.309 144.016V149.896L356.901 150.28V132.28H359.901L360.069 133.768C360.549 133.144 361.109 132.68 361.749 132.376C362.405 132.056 363.077 131.896 363.765 131.896ZM362.445 142.84C364.109 142.84 364.941 141.44 364.941 138.64C364.941 137.104 364.757 136.016 364.389 135.376C364.021 134.736 363.461 134.416 362.709 134.416C362.229 134.416 361.781 134.568 361.365 134.872C360.965 135.16 360.613 135.552 360.309 136.048V141.592C360.853 142.424 361.565 142.84 362.445 142.84ZM374.366 145.384C373.326 145.384 372.518 145.088 371.942 144.496C371.366 143.888 371.078 143.032 371.078 141.928V127.216L374.486 126.832V141.832C374.486 142.392 374.718 142.672 375.182 142.672C375.438 142.672 375.662 142.624 375.854 142.528L376.55 144.952C375.894 145.24 375.166 145.384 374.366 145.384ZM388.934 138.352C388.934 138.512 388.91 138.952 388.862 139.672H380.918C381.03 140.824 381.342 141.64 381.854 142.12C382.366 142.6 383.062 142.84 383.942 142.84C384.486 142.84 384.998 142.752 385.478 142.576C385.958 142.4 386.478 142.12 387.038 141.736L388.454 143.656C387.03 144.808 385.422 145.384 383.63 145.384C381.63 145.384 380.094 144.784 379.022 143.584C377.95 142.384 377.414 140.76 377.414 138.712C377.414 137.416 377.638 136.256 378.086 135.232C378.55 134.192 379.214 133.376 380.078 132.784C380.958 132.192 381.998 131.896 383.198 131.896C385.006 131.896 386.414 132.464 387.422 133.6C388.43 134.736 388.934 136.32 388.934 138.352ZM385.55 137.392C385.55 135.28 384.79 134.224 383.27 134.224C382.566 134.224 382.014 134.488 381.614 135.016C381.23 135.528 380.998 136.368 380.918 137.536H385.55V137.392ZM399.009 144.4C398.545 144.72 398.017 144.96 397.425 145.12C396.849 145.296 396.273 145.384 395.697 145.384C394.385 145.368 393.393 144.992 392.721 144.256C392.049 143.52 391.713 142.44 391.713 141.016V134.68H389.817V132.28H391.713V129.496L395.121 129.088V132.28H398.049L397.713 134.68H395.121V140.944C395.121 141.552 395.225 141.992 395.433 142.264C395.641 142.536 395.961 142.672 396.393 142.672C396.825 142.672 397.305 142.528 397.833 142.24L399.009 144.4ZM410.872 138.352C410.872 138.512 410.848 138.952 410.8 139.672H402.856C402.968 140.824 403.28 141.64 403.792 142.12C404.304 142.6 405 142.84 405.88 142.84C406.424 142.84 406.936 142.752 407.416 142.576C407.896 142.4 408.416 142.12 408.976 141.736L410.392 143.656C408.968 144.808 407.36 145.384 405.568 145.384C403.568 145.384 402.032 144.784 400.96 143.584C399.888 142.384 399.352 140.76 399.352 138.712C399.352 137.416 399.576 136.256 400.024 135.232C400.488 134.192 401.152 133.376 402.016 132.784C402.896 132.192 403.936 131.896 405.136 131.896C406.944 131.896 408.352 132.464 409.36 133.6C410.368 134.736 410.872 136.32 410.872 138.352ZM407.488 137.392C407.488 135.28 406.728 134.224 405.208 134.224C404.504 134.224 403.952 134.488 403.552 135.016C403.168 135.528 402.936 136.368 402.856 137.536H407.488V137.392ZM430.286 128.392L429.902 131.152H425.702V145H422.174V131.152H417.758V128.392H430.286ZM440.543 141.472C440.543 141.968 440.615 142.336 440.759 142.576C440.903 142.8 441.143 142.968 441.479 143.08L440.759 145.336C440.007 145.272 439.391 145.096 438.911 144.808C438.447 144.52 438.087 144.072 437.831 143.464C436.999 144.744 435.727 145.384 434.015 145.384C432.751 145.384 431.743 145.024 430.991 144.304C430.255 143.568 429.887 142.616 429.887 141.448C429.887 140.056 430.391 138.992 431.399 138.256C432.407 137.52 433.855 137.152 435.743 137.152H437.207V136.528C437.207 135.744 437.031 135.2 436.679 134.896C436.327 134.592 435.743 134.44 434.927 134.44C434.031 134.44 432.911 134.664 431.567 135.112L430.799 132.832C432.383 132.208 433.951 131.896 435.503 131.896C437.231 131.896 438.503 132.272 439.319 133.024C440.135 133.76 440.543 134.864 440.543 136.336V141.472ZM434.951 142.936C435.911 142.936 436.663 142.464 437.207 141.52V139.096H436.079C434.239 139.096 433.319 139.784 433.319 141.16C433.319 141.72 433.455 142.16 433.727 142.48C434.015 142.784 434.423 142.936 434.951 142.936ZM447.937 131.896C449.729 131.896 451.265 132.408 452.545 133.432L451.249 135.376C450.177 134.704 449.121 134.368 448.081 134.368C447.521 134.368 447.089 134.472 446.785 134.68C446.481 134.888 446.329 135.168 446.329 135.52C446.329 135.776 446.393 135.992 446.521 136.168C446.665 136.344 446.921 136.512 447.289 136.672C447.673 136.832 448.241 137.024 448.993 137.248C450.337 137.616 451.337 138.112 451.993 138.736C452.649 139.344 452.977 140.184 452.977 141.256C452.977 142.104 452.729 142.84 452.233 143.464C451.753 144.088 451.097 144.568 450.265 144.904C449.433 145.224 448.505 145.384 447.481 145.384C446.409 145.384 445.433 145.224 444.553 144.904C443.673 144.568 442.921 144.112 442.297 143.536L443.977 141.664C445.049 142.496 446.185 142.912 447.385 142.912C448.025 142.912 448.529 142.792 448.897 142.552C449.281 142.296 449.473 141.952 449.473 141.52C449.473 141.184 449.401 140.92 449.257 140.728C449.113 140.536 448.849 140.36 448.465 140.2C448.081 140.024 447.481 139.824 446.665 139.6C445.385 139.248 444.433 138.752 443.809 138.112C443.201 137.456 442.897 136.648 442.897 135.688C442.897 134.968 443.105 134.32 443.521 133.744C443.937 133.168 444.521 132.72 445.273 132.4C446.041 132.064 446.929 131.896 447.937 131.896ZM458.606 126.832V145H455.198V127.216L458.606 126.832ZM466.334 132.28L462.278 137.872L466.694 145H462.83L458.726 138.04L462.806 132.28H466.334ZM472.312 131.896C474.104 131.896 475.64 132.408 476.92 133.432L475.624 135.376C474.552 134.704 473.496 134.368 472.456 134.368C471.896 134.368 471.464 134.472 471.16 134.68C470.856 134.888 470.704 135.168 470.704 135.52C470.704 135.776 470.768 135.992 470.896 136.168C471.04 136.344 471.296 136.512 471.664 136.672C472.048 136.832 472.616 137.024 473.368 137.248C474.712 137.616 475.712 138.112 476.368 138.736C477.024 139.344 477.352 140.184 477.352 141.256C477.352 142.104 477.104 142.84 476.608 143.464C476.128 144.088 475.472 144.568 474.64 144.904C473.808 145.224 472.88 145.384 471.856 145.384C470.784 145.384 469.808 145.224 468.928 144.904C468.048 144.568 467.296 144.112 466.672 143.536L468.352 141.664C469.424 142.496 470.56 142.912 471.76 142.912C472.4 142.912 472.904 142.792 473.272 142.552C473.656 142.296 473.848 141.952 473.848 141.52C473.848 141.184 473.776 140.92 473.632 140.728C473.488 140.536 473.224 140.36 472.84 140.2C472.456 140.024 471.856 139.824 471.04 139.6C469.76 139.248 468.808 138.752 468.184 138.112C467.576 137.456 467.272 136.648 467.272 135.688C467.272 134.968 467.48 134.32 467.896 133.744C468.312 133.168 468.896 132.72 469.648 132.4C470.416 132.064 471.304 131.896 472.312 131.896Z" fill="black"/>
<g clip-path="url(#clip1_125_399)">
<path d="M413.224 35.97C413.224 34.7106 412.641 34.1312 411.355 34.1312C406.761 34.1312 402.166 34.1336 397.571 34.1382C397.25 34.1382 397.094 34.0585 396.947 33.7562C396.085 32.007 394.673 31.0316 392.697 30.9994C390.671 30.9672 389.212 31.9356 388.32 33.7072C388.146 34.0501 387.976 34.1368 387.623 34.1368C383.064 34.127 378.504 34.1592 373.945 34.1102C372.72 34.099 372 34.8687 372 36.0232C372.027 51.5524 372.027 67.0812 372 82.6095C372 83.5555 372.304 84.2174 373.18 84.5952H412.055C412.929 84.2104 413.232 83.5541 413.231 82.6053C413.211 67.0612 413.209 51.516 413.224 35.97ZM384.688 37.6996C384.678 37.3694 384.753 37.2574 385.111 37.263C386.502 37.2854 387.891 37.2742 389.281 37.2714C390.352 37.2714 390.947 36.7284 391.035 35.6831C391.108 34.7959 391.813 34.1172 392.642 34.134C393.47 34.1508 394.124 34.8071 394.194 35.6733C394.286 36.7298 394.872 37.2658 395.942 37.2672C397.331 37.2672 398.722 37.2798 400.113 37.2672C400.457 37.2672 400.554 37.354 400.543 37.6954C400.517 38.4623 400.517 39.2296 400.543 39.9974C400.556 40.3416 400.454 40.427 400.111 40.4172C397.612 40.4018 395.114 40.4088 392.615 40.4088C390.116 40.4088 387.618 40.4088 385.12 40.4172C384.788 40.4172 384.666 40.3528 384.681 39.9974C384.716 39.2347 384.706 38.4665 384.688 37.6996ZM410.056 81.0352C410.056 81.3711 409.977 81.4663 409.632 81.4663C398.296 81.456 386.959 81.456 375.621 81.4663C375.213 81.4663 375.186 81.3179 375.186 80.9891C375.195 73.7646 375.195 66.5406 375.186 59.317C375.186 52.1458 375.183 44.974 375.175 37.8018C375.175 37.382 375.257 37.2518 375.709 37.2588C377.504 37.2882 379.3 37.2798 381.096 37.2588C381.431 37.2588 381.539 37.3302 381.534 37.6786C381.511 39.078 381.522 40.4704 381.525 41.8669C381.525 42.9137 382.172 43.5462 383.238 43.5462C389.487 43.5462 395.737 43.5462 401.987 43.5462C403.079 43.5462 403.706 42.9151 403.708 41.8207C403.708 40.4424 403.72 39.064 403.7 37.6856C403.7 37.347 403.782 37.2518 404.123 37.256C405.953 37.2737 407.784 37.2737 409.615 37.256C409.96 37.256 410.047 37.3414 410.047 37.6758C410.044 52.135 410.047 66.5882 410.056 81.0352Z" fill="url(#paint2_linear_125_399)"/>
<path d="M392.722 50.0554C389.354 50.0553 386.123 51.3782 383.737 53.7343C381.351 56.0904 380.005 59.2876 379.992 62.6259C379.979 69.557 385.7 75.2202 392.698 75.2062C399.696 75.1922 405.376 69.557 405.383 62.6483C405.39 55.7396 399.683 50.0722 392.722 50.0554ZM392.624 72.0422C391.379 72.0356 390.148 71.7859 389 71.3072C387.853 70.8285 386.812 70.1304 385.936 69.2526C385.061 68.3748 384.369 67.3347 383.9 66.1916C383.43 65.0485 383.193 63.825 383.201 62.5909C383.218 57.4132 387.512 53.1815 392.716 53.2221C393.972 53.2142 395.217 53.4533 396.379 53.9255C397.54 54.3977 398.596 55.0937 399.485 55.9732C400.374 56.8527 401.077 57.8981 401.555 59.049C402.034 60.2 402.277 61.4335 402.271 62.6782C402.265 63.9229 402.01 65.154 401.52 66.3003C401.031 67.4466 400.317 68.4852 399.42 69.3562C398.523 70.2271 397.46 70.9129 396.294 71.374C395.127 71.8351 393.88 72.0622 392.624 72.0422Z" fill="url(#paint3_linear_125_399)"/>
<path d="M397.868 57.9856C397.22 57.7924 396.695 58.0009 396.243 58.4473C394.622 60.0468 392.996 61.6463 391.396 63.2612C391.152 63.5061 391.028 63.5019 390.796 63.2612C390.244 62.6776 389.667 62.1137 389.084 61.5581C388.395 60.9004 387.46 60.8892 386.818 61.5106C386.175 62.1319 386.174 63.117 386.849 63.7999C387.87 64.8327 388.909 65.8514 389.943 66.8715C390.086 67.0228 390.259 67.1428 390.451 67.2238C390.643 67.3048 390.85 67.345 391.059 67.3417C391.272 67.3556 391.485 67.3235 391.685 67.2477C391.884 67.1718 392.065 67.054 392.214 66.9023C394.332 64.8107 396.447 62.7145 398.557 60.6136C398.745 60.4403 398.885 60.2215 398.962 59.9787C399.04 59.7359 399.052 59.4773 398.999 59.2282C398.951 58.935 398.819 58.6617 398.618 58.4412C398.418 58.2208 398.157 58.0625 397.868 57.9856Z" fill="url(#paint4_linear_125_399)"/>
</g>
<circle cx="393" cy="58" r="39" stroke="url(#paint5_linear_125_399)" stroke-width="2"/>
<path d="M622.54 128.008C623.66 128.008 624.652 128.184 625.516 128.536C626.396 128.872 627.212 129.36 627.964 130L626.116 131.92C625.524 131.472 624.964 131.144 624.436 130.936C623.924 130.728 623.34 130.624 622.684 130.624C621.42 130.624 620.396 131.128 619.612 132.136C618.844 133.128 618.46 134.648 618.46 136.696C618.46 138.856 618.756 140.408 619.348 141.352C619.956 142.28 620.892 142.744 622.156 142.744C623.068 142.744 623.892 142.544 624.628 142.144V138.088H622.3L621.94 135.52H628.06V143.704C627.196 144.232 626.26 144.648 625.252 144.952C624.26 145.24 623.252 145.384 622.228 145.384C619.78 145.384 617.924 144.648 616.66 143.176C615.396 141.704 614.764 139.536 614.764 136.672C614.764 134.864 615.108 133.304 615.796 131.992C616.484 130.68 617.412 129.688 618.58 129.016C619.764 128.344 621.084 128.008 622.54 128.008ZM641.659 138.352C641.659 138.512 641.635 138.952 641.587 139.672H633.643C633.755 140.824 634.067 141.64 634.579 142.12C635.091 142.6 635.787 142.84 636.667 142.84C637.211 142.84 637.723 142.752 638.203 142.576C638.683 142.4 639.203 142.12 639.763 141.736L641.179 143.656C639.755 144.808 638.147 145.384 636.355 145.384C634.355 145.384 632.819 144.784 631.747 143.584C630.675 142.384 630.139 140.76 630.139 138.712C630.139 137.416 630.363 136.256 630.811 135.232C631.275 134.192 631.939 133.376 632.803 132.784C633.683 132.192 634.723 131.896 635.923 131.896C637.731 131.896 639.139 132.464 640.147 133.6C641.155 134.736 641.659 136.32 641.659 138.352ZM638.275 137.392C638.275 135.28 637.515 134.224 635.995 134.224C635.291 134.224 634.739 134.488 634.339 135.016C633.955 135.528 633.723 136.368 633.643 137.536H638.275V137.392ZM651.734 144.4C651.27 144.72 650.742 144.96 650.15 145.12C649.574 145.296 648.998 145.384 648.422 145.384C647.11 145.368 646.118 144.992 645.446 144.256C644.774 143.52 644.438 142.44 644.438 141.016V134.68H642.542V132.28H644.438V129.496L647.846 129.088V132.28H650.774L650.438 134.68H647.846V140.944C647.846 141.552 647.95 141.992 648.158 142.264C648.366 142.536 648.686 142.672 649.118 142.672C649.55 142.672 650.03 142.528 650.558 142.24L651.734 144.4ZM664.502 138.496H662.702V145H659.174V128.392H664.358C666.582 128.392 668.254 128.808 669.374 129.64C670.494 130.456 671.054 131.696 671.054 133.36C671.054 134.448 670.782 135.344 670.238 136.048C669.71 136.752 668.886 137.352 667.766 137.848L672.062 145H668.054L664.502 138.496ZM662.702 136H664.55C665.494 136 666.206 135.792 666.686 135.376C667.166 134.944 667.406 134.272 667.406 133.36C667.406 132.512 667.15 131.896 666.638 131.512C666.142 131.112 665.358 130.912 664.286 130.912H662.702V136ZM684.245 138.352C684.245 138.512 684.221 138.952 684.173 139.672H676.229C676.341 140.824 676.653 141.64 677.165 142.12C677.677 142.6 678.373 142.84 679.253 142.84C679.797 142.84 680.309 142.752 680.789 142.576C681.269 142.4 681.789 142.12 682.349 141.736L683.765 143.656C682.341 144.808 680.733 145.384 678.941 145.384C676.941 145.384 675.405 144.784 674.333 143.584C673.261 142.384 672.725 140.76 672.725 138.712C672.725 137.416 672.949 136.256 673.397 135.232C673.861 134.192 674.525 133.376 675.389 132.784C676.269 132.192 677.309 131.896 678.509 131.896C680.317 131.896 681.725 132.464 682.733 133.6C683.741 134.736 684.245 136.32 684.245 138.352ZM680.861 137.392C680.861 135.28 680.101 134.224 678.581 134.224C677.877 134.224 677.325 134.488 676.925 135.016C676.541 135.528 676.309 136.368 676.229 137.536H680.861V137.392ZM702.624 132.28L699.912 145H695.76L693.936 135.328L692.112 145H688.008L685.224 132.28H688.656L690.216 142.48L692.328 132.28H695.736L697.632 142.48L699.36 132.28H702.624ZM713.916 141.472C713.916 141.968 713.988 142.336 714.132 142.576C714.276 142.8 714.516 142.968 714.852 143.08L714.132 145.336C713.38 145.272 712.764 145.096 712.284 144.808C711.82 144.52 711.46 144.072 711.204 143.464C710.372 144.744 709.1 145.384 707.388 145.384C706.124 145.384 705.116 145.024 704.364 144.304C703.628 143.568 703.26 142.616 703.26 141.448C703.26 140.056 703.764 138.992 704.772 138.256C705.78 137.52 707.228 137.152 709.116 137.152H710.58V136.528C710.58 135.744 710.404 135.2 710.052 134.896C709.7 134.592 709.116 134.44 708.3 134.44C707.404 134.44 706.284 134.664 704.94 135.112L704.172 132.832C705.756 132.208 707.324 131.896 708.876 131.896C710.604 131.896 711.876 132.272 712.692 133.024C713.508 133.76 713.916 134.864 713.916 136.336V141.472ZM708.324 142.936C709.284 142.936 710.036 142.464 710.58 141.52V139.096H709.452C707.612 139.096 706.692 139.784 706.692 141.16C706.692 141.72 706.828 142.16 707.1 142.48C707.388 142.784 707.796 142.936 708.324 142.936ZM723.897 131.92C724.281 131.92 724.705 131.984 725.169 132.112L724.593 135.4C724.145 135.288 723.769 135.232 723.465 135.232C722.713 135.232 722.129 135.496 721.713 136.024C721.297 136.552 720.969 137.352 720.729 138.424V145H717.321V132.28H720.273L720.585 134.752C720.889 133.856 721.329 133.16 721.905 132.664C722.497 132.168 723.161 131.92 723.897 131.92ZM737.15 127.216V145H734.15L733.958 143.44C733.062 144.736 731.846 145.384 730.31 145.384C728.742 145.384 727.542 144.784 726.71 143.584C725.894 142.368 725.486 140.72 725.486 138.64C725.486 137.328 725.694 136.168 726.11 135.16C726.542 134.136 727.15 133.336 727.934 132.76C728.718 132.184 729.622 131.896 730.646 131.896C731.83 131.896 732.862 132.32 733.742 133.168V126.832L737.15 127.216ZM731.318 142.84C731.814 142.84 732.254 142.72 732.638 142.48C733.022 142.224 733.39 141.832 733.742 141.304V135.616C733.406 135.216 733.062 134.92 732.71 134.728C732.374 134.52 731.982 134.416 731.534 134.416C730.75 134.416 730.134 134.76 729.686 135.448C729.254 136.136 729.038 137.2 729.038 138.64C729.038 140.16 729.23 141.24 729.614 141.88C730.014 142.52 730.582 142.84 731.318 142.84ZM751.253 138.352C751.253 138.512 751.229 138.952 751.181 139.672H743.237C743.349 140.824 743.661 141.64 744.173 142.12C744.685 142.6 745.381 142.84 746.261 142.84C746.805 142.84 747.317 142.752 747.797 142.576C748.277 142.4 748.797 142.12 749.357 141.736L750.773 143.656C749.349 144.808 747.741 145.384 745.949 145.384C743.949 145.384 742.413 144.784 741.341 143.584C740.269 142.384 739.733 140.76 739.733 138.712C739.733 137.416 739.957 136.256 740.405 135.232C740.869 134.192 741.533 133.376 742.397 132.784C743.277 132.192 744.317 131.896 745.517 131.896C747.325 131.896 748.733 132.464 749.741 133.6C750.749 134.736 751.253 136.32 751.253 138.352ZM747.869 137.392C747.869 135.28 747.109 134.224 745.589 134.224C744.885 134.224 744.333 134.488 743.933 135.016C743.549 135.528 743.317 136.368 743.237 137.536H747.869V137.392ZM764.736 127.216V145H761.736L761.544 143.44C760.648 144.736 759.432 145.384 757.896 145.384C756.328 145.384 755.128 144.784 754.296 143.584C753.48 142.368 753.072 140.72 753.072 138.64C753.072 137.328 753.28 136.168 753.696 135.16C754.128 134.136 754.736 133.336 755.52 132.76C756.304 132.184 757.208 131.896 758.232 131.896C759.416 131.896 760.448 132.32 761.328 133.168V126.832L764.736 127.216ZM758.904 142.84C759.4 142.84 759.84 142.72 760.224 142.48C760.608 142.224 760.976 141.832 761.328 141.304V135.616C760.992 135.216 760.648 134.92 760.296 134.728C759.96 134.52 759.568 134.416 759.12 134.416C758.336 134.416 757.72 134.76 757.272 135.448C756.84 136.136 756.624 137.2 756.624 138.64C756.624 140.16 756.816 141.24 757.2 141.88C757.6 142.52 758.168 142.84 758.904 142.84Z" fill="black"/>
<circle cx="392" cy="16" r="12" fill="url(#paint6_linear_125_399)"/>
<path d="M391.662 10.0133C392.456 10.0133 393.141 10.1606 393.719 10.4553C394.297 10.7386 394.734 11.1296 395.028 11.6283C395.334 12.1156 395.487 12.6596 395.487 13.2603C395.487 13.8836 395.351 14.4843 395.079 15.0623C394.819 15.6403 394.365 16.2919 393.719 17.0173C393.085 17.7426 392.155 18.6776 390.931 19.8223H395.742L395.47 21.6923H388.177V19.9413C389.605 18.5133 390.637 17.4479 391.271 16.7453C391.906 16.0426 392.354 15.4476 392.614 14.9603C392.875 14.4729 393.005 13.9743 393.005 13.4643C393.005 12.9769 392.864 12.5916 392.58 12.3083C392.297 12.0249 391.917 11.8833 391.441 11.8833C391.022 11.8833 390.648 11.9796 390.319 12.1723C389.991 12.3536 389.645 12.6596 389.282 13.0903L387.837 11.9343C388.812 10.6536 390.087 10.0133 391.662 10.0133Z" fill="white"/>
<circle cx="88" cy="17" r="12" fill="url(#paint7_linear_125_399)"/>
<path d="M90.3624 11.2343V22.6923H87.9994V13.6143L85.4834 15.1613L84.4294 13.5293L88.2374 11.2343H90.3624Z" fill="white"/>
<g clip-path="url(#clip2_125_399)">
<path d="M712.985 41.4114C712.985 41.0498 712.79 41.0894 712.562 41.0907C710.41 41.0907 708.259 41.083 706.107 41.0996C705.771 41.0996 705.685 41.0217 705.687 40.6843C705.704 38.5976 705.687 36.5097 705.704 34.423C705.707 34.0856 705.627 34 705.287 34C695.092 34.0102 684.897 34.0102 674.702 34C674.365 34 674.28 34.0805 674.283 34.4166C674.3 36.5033 674.283 38.5912 674.3 40.6779C674.3 41.0127 674.222 41.0984 673.882 41.0958C671.747 41.0792 669.611 41.0958 667.476 41.0779C667.099 41.0779 666.997 41.1725 667 41.5481C667.016 44.3683 667 47.1898 667.012 50.0099C667.006 50.4402 667.032 50.8704 667.091 51.2967C667.691 55.0957 670.869 57.8047 674.738 57.8137C675.075 57.8137 675.23 57.9057 675.361 58.2277C676.336 60.6322 677.961 62.7228 680.057 64.2693C681.32 65.2187 682.761 65.8448 684.177 66.5004C684.287 66.5355 684.381 66.6077 684.442 66.7043C684.504 66.801 684.529 66.916 684.514 67.0294C684.497 68.2075 684.497 69.3866 684.514 70.5664C684.514 70.8641 684.459 70.9881 684.128 70.9677C683.632 70.9383 683.133 70.9562 682.636 70.9677C679.372 70.9958 677.09 73.2818 677.088 76.5237C677.088 78.6747 677.088 80.8257 677.088 82.9767H702.904C702.904 80.7137 702.914 78.4519 702.897 76.1889C702.876 75.0032 702.455 73.8589 701.701 72.9389C700.947 72.019 699.904 71.3766 698.738 71.1146C697.802 70.9076 696.853 70.9613 695.906 70.9779C695.528 70.9843 695.454 70.868 695.469 70.5255C695.498 69.9045 695.469 69.2822 695.478 68.6612C695.478 67.9941 695.271 67.1878 695.575 66.6984C695.862 66.2358 696.694 66.1055 697.286 65.8282C700.738 64.2092 703.219 61.6689 704.659 58.1485C704.756 57.9082 704.872 57.8022 705.148 57.8213C705.79 57.8513 706.432 57.7872 707.055 57.6309C710.213 56.9281 712.75 54.053 712.913 50.8789C713.081 47.7188 712.943 44.5613 712.985 41.4114ZM674.137 54.9015C671.909 54.6881 669.984 52.6768 669.952 50.4521C669.922 48.4075 669.952 46.3758 669.93 44.3389C669.93 43.999 670.059 43.9556 670.346 43.9556C671.533 43.9684 672.72 43.9735 673.907 43.9556C674.234 43.9556 674.301 44.0553 674.294 44.3568C674.28 45.9171 674.294 47.4786 674.294 49.0388C674.294 50.4444 674.285 51.8411 674.294 53.2416C674.294 53.7016 674.35 54.1616 674.393 54.6204C674.415 54.8286 674.422 54.9283 674.137 54.9015ZM697.386 73.8517C698.691 73.8415 700.028 74.7666 700.01 76.4559C699.999 77.5076 699.99 78.5592 700.018 79.6096C700.028 79.993 699.944 80.1131 699.53 80.1093C696.352 80.0901 693.175 80.099 690.002 80.099C686.83 80.099 683.647 80.0901 680.474 80.1093C680.063 80.1093 679.974 79.9994 679.986 79.6109C680.014 78.5605 680.007 77.5089 679.994 76.4572C679.971 74.7884 681.294 73.8415 682.617 73.8517C687.533 73.8918 692.457 73.8918 697.386 73.8517ZM702.794 52.319C702.783 57.4772 700.422 61.1586 695.713 63.3633C694.787 63.7952 693.864 64.2335 692.929 64.6411C692.653 64.7689 692.563 64.9133 692.567 65.2123C692.582 66.9808 692.567 68.7506 692.584 70.5191C692.584 70.8897 692.474 70.9664 692.124 70.9613C690.727 70.9421 689.33 70.9383 687.933 70.9613C687.527 70.9689 687.387 70.8923 687.395 70.4501C687.426 68.7455 687.395 67.0396 687.417 65.3388C687.417 64.9555 687.323 64.7574 686.949 64.5913C685.639 64.0073 684.298 63.4604 683.061 62.7435C679.309 60.5712 677.291 57.2731 677.211 52.9681C677.113 47.729 677.192 42.4899 677.175 37.2406C677.175 36.8291 677.383 36.8751 677.645 36.8751C681.757 36.8751 685.867 36.8751 689.976 36.8751C694.086 36.8751 698.196 36.8751 702.308 36.8662C702.703 36.8662 702.807 36.9518 702.806 37.3543C702.794 42.343 702.807 47.3316 702.794 52.319ZM709.938 51.206C709.56 53.1227 707.852 54.6561 705.896 54.8913C705.638 54.9219 705.566 54.9002 705.586 54.6216C705.819 51.2188 705.644 47.8121 705.686 44.4067C705.686 44.0616 705.753 43.9466 706.126 43.9556C707.297 43.9837 708.469 43.9799 709.639 43.9556C709.989 43.9556 710.06 44.0629 710.054 44.3849C710.034 45.4072 710.047 46.4295 710.047 47.6638C709.981 48.6951 710.184 49.9614 709.939 51.206H709.938Z" fill="url(#paint8_linear_125_399)"/>
<path d="M698.324 46.6748C698.195 46.4333 698.087 46.2991 697.823 46.2633C696.397 46.0691 694.971 45.8646 693.545 45.6717C693.427 45.6646 693.313 45.6249 693.217 45.5572C693.121 45.4894 693.046 45.3963 693 45.2883C692.533 44.3146 692.046 43.3511 691.563 42.3864C691.351 41.9596 691.235 41.3641 690.887 41.1596C690.514 40.9424 689.92 41.1175 689.424 41.0843C689.133 41.0638 689.01 41.1878 688.893 41.4293C688.268 42.7071 687.619 43.9849 686.999 45.2717C686.95 45.387 686.869 45.4864 686.766 45.5585C686.663 45.6305 686.541 45.6724 686.415 45.6793C685.353 45.8237 684.295 46.0921 683.231 46.1087C682.043 46.1278 681.483 46.6339 681.31 47.7494C681.268 48.0229 681.296 48.1737 681.49 48.3564C682.372 49.1921 683.208 50.0802 684.127 50.8724C684.702 51.367 684.949 51.8653 684.699 52.5924C684.625 52.8523 684.573 53.1177 684.543 53.3859C684.372 54.3877 684.2 55.3887 684.028 56.3888C683.978 56.569 684.1 56.6444 684.22 56.7338C684.546 56.9651 684.882 57.1862 685.19 57.4392C685.403 57.6143 685.569 57.6309 685.824 57.4942C687.089 56.8156 688.374 56.1754 689.636 55.4918C689.746 55.4209 689.875 55.3839 690.007 55.3855C690.139 55.3871 690.267 55.4271 690.376 55.5007C691.329 56.0195 692.35 56.4323 693.246 57.0341C694.161 57.6475 694.882 57.6207 695.65 56.8488C695.876 56.6201 695.987 56.4655 695.923 56.1294C695.665 54.7583 695.44 53.377 695.19 52.002C695.16 51.8734 695.167 51.7389 695.211 51.6144C695.256 51.4898 695.335 51.3805 695.44 51.2992C696.213 50.5798 696.903 49.7594 697.737 49.1269C698.663 48.4126 698.867 47.6855 698.324 46.6748ZM692.365 50.2284C692.097 50.484 691.992 50.7076 692.083 51.0935C692.247 51.7835 692.324 52.4991 692.457 53.308C691.823 52.9834 691.262 52.7547 690.767 52.425C690.233 52.0685 689.777 52.0595 689.249 52.4173C688.842 52.6691 688.418 52.8941 687.981 53.0907C687.846 53.1585 687.714 53.2799 687.525 53.2006C687.667 52.4161 687.801 51.6276 687.955 50.8418C687.999 50.613 687.879 50.4929 687.743 50.3524C687.197 49.7914 686.66 49.224 686.095 48.6337C686.762 48.5391 687.454 48.4267 688.155 48.3462C688.564 48.2989 688.848 48.1698 689.02 47.7494C689.289 47.0964 689.638 46.4716 689.997 45.7509C690.384 46.5176 690.731 47.2038 691.058 47.8976C691.097 48.0078 691.167 48.1041 691.261 48.1746C691.354 48.2451 691.466 48.2866 691.584 48.2938C692.356 48.3858 693.129 48.5174 693.915 48.6337C693.395 49.1755 692.898 49.7173 692.365 50.2284Z" fill="url(#paint9_linear_125_399)"/>
</g>
<circle cx="690" cy="58" r="39" stroke="url(#paint10_linear_125_399)" stroke-width="2"/>
<circle cx="690" cy="12" r="12" fill="url(#paint11_linear_125_399)"/>
<path d="M689.605 5.53771C690.419 5.53771 691.115 5.67335 691.693 5.94463C692.282 6.20412 692.725 6.56386 693.02 7.02386C693.326 7.48386 693.48 7.99694 693.48 8.56309C693.48 9.28258 693.273 9.88412 692.86 10.3677C692.448 10.8395 691.875 11.1757 691.144 11.3762C691.946 11.4587 692.601 11.7477 693.108 12.2431C693.615 12.7385 693.869 13.4285 693.869 14.3131C693.869 14.9972 693.692 15.6164 693.338 16.1708C692.996 16.7251 692.489 17.1675 691.816 17.4977C691.144 17.8162 690.348 17.9754 689.428 17.9754C687.741 17.9754 686.42 17.3857 685.465 16.2062L686.827 14.8969C687.228 15.298 687.623 15.5869 688.013 15.7639C688.402 15.9408 688.826 16.0292 689.286 16.0292C689.9 16.0292 690.383 15.8641 690.737 15.5339C691.103 15.2036 691.286 14.7436 691.286 14.1539C691.286 13.5169 691.115 13.0569 690.773 12.7739C690.431 12.4908 689.918 12.3492 689.233 12.3492H688.26L688.561 10.58H689.216C689.77 10.58 690.212 10.4326 690.543 10.1377C690.873 9.84283 691.038 9.43001 691.038 8.89925C691.038 8.43925 690.885 8.0795 690.578 7.82001C690.283 7.56053 689.876 7.43078 689.357 7.43078C688.909 7.43078 688.496 7.51335 688.119 7.67848C687.741 7.8436 687.37 8.10309 687.004 8.45694L685.748 7.09463C686.845 6.05668 688.131 5.53771 689.605 5.53771Z" fill="white"/>
<defs>
<linearGradient id="paint0_linear_125_399" x1="63.0633" y1="-6.42857" x2="197.682" y2="9.56809" gradientUnits="userSpaceOnUse">
<stop stop-color="#2042B8"/>
<stop offset="0.818034" stop-color="#FF6600"/>
</linearGradient>
<linearGradient id="paint1_linear_125_399" x1="67.5558" y1="14.1739" x2="154.712" y2="22.7406" gradientUnits="userSpaceOnUse">
<stop stop-color="#2042B8"/>
<stop offset="0.818034" stop-color="#FF6600"/>
</linearGradient>
<linearGradient id="paint2_linear_125_399" x1="379.763" y1="13.2926" x2="449.54" y2="19.6712" gradientUnits="userSpaceOnUse">
<stop stop-color="#2042B8"/>
<stop offset="0.818034" stop-color="#FF6600"/>
</linearGradient>
<linearGradient id="paint3_linear_125_399" x1="384.773" y1="41.7466" x2="427.487" y2="46.8707" gradientUnits="userSpaceOnUse">
<stop stop-color="#2042B8"/>
<stop offset="0.818034" stop-color="#FF6600"/>
</linearGradient>
<linearGradient id="paint4_linear_125_399" x1="388.729" y1="54.7977" x2="409.848" y2="58.1747" gradientUnits="userSpaceOnUse">
<stop stop-color="#2042B8"/>
<stop offset="0.818034" stop-color="#FF6600"/>
</linearGradient>
<linearGradient id="paint5_linear_125_399" x1="368.063" y1="-8.42857" x2="502.682" y2="7.56809" gradientUnits="userSpaceOnUse">
<stop stop-color="#2042B8"/>
<stop offset="0.818034" stop-color="#FF6600"/>
</linearGradient>
<linearGradient id="paint6_linear_125_399" x1="384.519" y1="-3.92857" x2="424.904" y2="0.870426" gradientUnits="userSpaceOnUse">
<stop stop-color="#2042B8"/>
<stop offset="0.818034" stop-color="#FF6600"/>
</linearGradient>
<linearGradient id="paint7_linear_125_399" x1="80.519" y1="-2.92857" x2="120.904" y2="1.87043" gradientUnits="userSpaceOnUse">
<stop stop-color="#2042B8"/>
<stop offset="0.818034" stop-color="#FF6600"/>
</linearGradient>
<linearGradient id="paint8_linear_125_399" x1="675.661" y1="17.8202" x2="753.192" y2="26.4731" gradientUnits="userSpaceOnUse">
<stop stop-color="#2042B8"/>
<stop offset="0.818034" stop-color="#FF6600"/>
</linearGradient>
<linearGradient id="paint9_linear_125_399" x1="684.556" y1="35.5859" x2="713.675" y2="39.2119" gradientUnits="userSpaceOnUse">
<stop stop-color="#2042B8"/>
<stop offset="0.818034" stop-color="#FF6600"/>
</linearGradient>
<linearGradient id="paint10_linear_125_399" x1="665.063" y1="-8.42857" x2="799.682" y2="7.56809" gradientUnits="userSpaceOnUse">
<stop stop-color="#2042B8"/>
<stop offset="0.818034" stop-color="#FF6600"/>
</linearGradient>
<linearGradient id="paint11_linear_125_399" x1="682.519" y1="-7.92857" x2="722.904" y2="-3.12957" gradientUnits="userSpaceOnUse">
<stop stop-color="#2042B8"/>
<stop offset="0.818034" stop-color="#FF6600"/>
</linearGradient>
<clipPath id="clip0_125_399">
<rect width="51.5668" height="62.3431" fill="white" transform="translate(57.8462 34.7692)"/>
</clipPath>
<clipPath id="clip1_125_399">
<rect width="41.2308" height="53.6" fill="white" transform="translate(372 31.0001)"/>
</clipPath>
<clipPath id="clip2_125_399">
<rect width="46" height="48.9677" fill="white" transform="translate(667 34)"/>
</clipPath>
</defs>
</svg>
