<svg width="53" height="54" viewBox="0 0 53 54" fill="none" xmlns="http://www.w3.org/2000/svg">
<path d="M35.1466 39.1758C34.7922 40.7421 33.8669 41.1309 32.5516 40.3939L25.3844 35.1129L21.9257 38.4388C21.5935 38.8682 21.0779 39.1413 20.4984 39.1413C20.4935 39.1413 20.4885 39.1413 20.4836 39.1413H20.4849L21.0004 31.8425L34.2841 19.8397C34.8611 19.3241 34.1586 19.0399 33.3871 19.5542L16.9646 29.8947L9.89459 27.6824C8.35656 27.2025 8.32949 26.1444 10.2145 25.4073L37.8671 14.7543C39.1479 14.2745 40.2676 15.0398 39.8505 16.9949L35.1466 39.1758Z" fill="#101010"/>
<circle cx="26.8743" cy="27.0191" r="25.4239" stroke="#D7D7D7" stroke-width="1.24019"/>
</svg>
