<svg width="53" height="54" viewBox="0 0 53 54" fill="none" xmlns="http://www.w3.org/2000/svg">
<path d="M37.9858 23.4127C37.9858 23.4456 37.9858 23.485 37.9858 23.5244C37.9858 32.3966 30.7932 39.5881 21.922 39.5881C21.8826 39.5881 21.8443 39.5881 21.8049 39.5881H21.8104C21.7983 39.5881 21.783 39.5881 21.7688 39.5881C18.5409 39.5881 15.5364 38.6366 13.0181 36.9975L13.0805 37.0359C13.4681 37.0808 13.9159 37.107 14.3714 37.107C14.3999 37.107 14.4294 37.107 14.4579 37.107H14.4535C14.4623 37.107 14.4732 37.107 14.4842 37.107C17.1471 37.107 19.5964 36.1928 21.5355 34.6599L21.5114 34.6785C19.0347 34.6314 16.9478 33.0109 16.2076 30.7761L16.1956 30.7356C16.5164 30.7893 16.8876 30.821 17.2664 30.8243H17.2697C17.8018 30.8221 18.3175 30.752 18.807 30.6207L18.7654 30.6305C16.1474 30.0874 14.2072 27.799 14.2072 25.0584C14.2072 25.0562 14.2072 25.054 14.2072 25.0518V24.9818C14.9473 25.4033 15.8277 25.6661 16.766 25.7022H16.777C15.2397 24.6664 14.2422 22.9321 14.2422 20.9656C14.2422 19.9089 14.5302 18.9202 15.0305 18.0727L15.0163 18.099C17.8336 21.5459 21.9998 23.7992 26.6981 24.0456L26.7375 24.0478C26.6511 23.658 26.5996 23.2091 26.5963 22.7481V22.7459C26.5985 19.6046 29.1453 17.0599 32.2867 17.0599C33.9214 17.0599 35.3952 17.7497 36.4332 18.8534L36.4364 18.8567C37.7964 18.5885 39.0063 18.1122 40.0946 17.4563L40.0442 17.4848C39.6041 18.8206 38.7205 19.91 37.5708 20.602L37.5456 20.6163C38.7588 20.4761 39.8647 20.1663 40.8906 19.7086L40.8184 19.737C40.0245 20.8812 39.0807 21.8535 38.0011 22.6518L37.9683 22.6747C37.9858 22.92 37.9858 23.1675 37.9858 23.4138V23.4127Z" fill="black"/>
<circle cx="26.3836" cy="27.0191" r="25.4239" stroke="#D7D7D7" stroke-width="1.24019"/>
</svg>
