<svg width="128" height="41" viewBox="0 0 128 41" fill="none" xmlns="http://www.w3.org/2000/svg">
<path d="M42.0078 24.257H52.5152V26.5401H44.7083V31.4255H51.5332V33.7332H44.7083V40.6317H42.0078V24.257Z" fill="#101010"/>
<path d="M55.4306 24.0115H58.1802V26.3437H55.4306V24.0115ZM55.5043 28.3814H58.082L58.1066 40.6317H55.5043V28.3814Z" fill="#101010"/>
<path d="M61.8079 29.3142C62.5443 28.9378 63.4363 28.635 64.4838 28.4059C65.5476 28.1604 66.5623 28.0377 67.528 28.0377C69.2465 28.0377 70.5149 28.3977 71.3332 29.1178C72.1515 29.838 72.5607 30.9591 72.5607 32.4812V40.6317H69.983V32.8249C69.983 31.1064 69.0091 30.2471 67.0615 30.2471C66.1286 30.2471 65.2367 30.4026 64.3856 30.7136V40.6317H61.8079V29.3142Z" fill="#101010"/>
<path d="M81.5199 28.0377C82.8619 28.0377 83.9994 28.365 84.9323 29.0196C85.8816 29.6579 86.348 30.6972 86.3316 32.1375V38.0294C86.3316 39.1424 85.8406 39.9198 84.8586 40.3617C83.8766 40.7872 82.4773 41 80.6606 41C79.204 41 78.001 40.6972 77.0518 40.0916C76.1025 39.4861 75.6279 38.4713 75.6279 37.0475C75.6279 35.7054 76.0125 34.6988 76.7817 34.0278C77.5673 33.3568 78.6721 33.0213 80.096 33.0213C81.569 33.0213 82.7965 33.3159 83.7784 33.9051V32.7267C83.7784 31.0573 82.7719 30.2226 80.7588 30.2226C80.0387 30.2226 79.3186 30.3372 78.5984 30.5663C77.8783 30.7791 77.2809 31.0818 76.8063 31.4746V29.0687C77.2646 28.7741 77.9274 28.5286 78.7948 28.3322C79.6786 28.1359 80.587 28.0377 81.5199 28.0377ZM80.9552 38.9869C81.9863 38.9869 82.7146 38.9132 83.1401 38.7659C83.5657 38.6186 83.7784 38.324 83.7784 37.8821V35.5008C82.9438 35.1407 82.0272 34.9607 81.0289 34.9607C80.096 34.9607 79.384 35.1244 78.893 35.4517C78.4184 35.779 78.1811 36.27 78.1811 36.9247C78.1811 37.6121 78.4511 38.1276 78.9912 38.4713C79.5477 38.815 80.2024 38.9869 80.9552 38.9869Z" fill="#101010"/>
<path d="M89.9779 29.3142C90.7144 28.9378 91.6063 28.635 92.6538 28.4059C93.7176 28.1604 94.7324 28.0377 95.698 28.0377C97.4165 28.0377 98.6849 28.3977 99.5032 29.1178C100.322 29.838 100.731 30.9591 100.731 32.4812V40.6317H98.153V32.8249C98.153 31.1064 97.1792 30.2471 95.2315 30.2471C94.2986 30.2471 93.4067 30.4026 92.5556 30.7136V40.6317H89.9779V29.3142Z" fill="#101010"/>
<path d="M109.788 40.8772C108.053 40.8772 106.605 40.378 105.443 39.3797C104.297 38.3813 103.724 36.7692 103.724 34.5434C103.724 32.252 104.289 30.599 105.418 29.5843C106.564 28.5532 108.012 28.0377 109.764 28.0377C111.089 28.0377 112.349 28.2832 113.544 28.7741V31.0818C112.3 30.5581 111.163 30.2962 110.132 30.2962C108.839 30.2962 107.873 30.6236 107.235 31.2782C106.597 31.9165 106.277 32.9394 106.277 34.347C106.277 35.82 106.588 36.9002 107.21 37.5875C107.832 38.2586 108.831 38.5941 110.205 38.5941C111.318 38.5941 112.439 38.324 113.569 37.7839V40.0916C112.39 40.6154 111.13 40.8772 109.788 40.8772Z" fill="#101010"/>
<path d="M121.623 28.0131C123.538 28.0131 124.938 28.635 125.821 29.8789C126.722 31.1064 127.163 32.8331 127.147 35.0589H118.506C118.587 36.27 118.939 37.1947 119.561 37.833C120.2 38.455 121.1 38.7659 122.262 38.7659C123.015 38.7659 123.735 38.6759 124.422 38.4959C125.109 38.2995 125.715 38.054 126.239 37.7594V40.1653C124.962 40.7217 123.497 41 121.844 41C119.995 41 118.538 40.4435 117.474 39.3306C116.427 38.2013 115.903 36.6056 115.903 34.5434C115.903 32.4321 116.402 30.82 117.401 29.707C118.399 28.5777 119.807 28.0131 121.623 28.0131ZM121.55 30.1244C120.682 30.1244 120.003 30.3535 119.512 30.8118C119.021 31.2701 118.702 32.0475 118.555 33.144H124.52C124.406 32.0966 124.111 31.3355 123.637 30.8609C123.162 30.3699 122.466 30.1244 121.55 30.1244Z" fill="#101010"/>
<path d="M27.245 0C29.7445 0 31.7708 2.02629 31.7708 4.52583V35.3015C31.7708 37.801 29.7445 39.8273 27.245 39.8273C24.7455 39.8273 22.7192 37.801 22.7192 35.3015V4.52583C22.7192 2.02628 24.7455 0 27.245 0Z" fill="url(#paint0_linear_125_172)"/>
<path d="M14.9803 12.6724C17.2547 12.6724 19.0985 14.5161 19.0985 16.7905V27.7723C19.0985 30.0466 17.2547 31.8904 14.9803 31.8904C12.7059 31.8904 10.8622 30.0466 10.8622 27.7722V16.7905C10.8622 14.5161 12.7059 12.6724 14.9803 12.6724Z" fill="url(#paint1_linear_125_172)"/>
<path d="M8.2363 11.3595C8.2363 9.08512 6.39254 7.24136 4.11815 7.24136C1.84376 7.24136 0 9.08512 0 11.3595V12.7322C0 15.0066 1.84376 16.8504 4.11815 16.8504C6.39254 16.8504 8.2363 15.0066 8.2363 12.7322V11.3595Z" fill="url(#paint2_linear_125_172)"/>
<path d="M14.9803 1.81036C17.2547 1.81036 19.0985 3.65412 19.0985 5.92851V7.30123C19.0985 9.57562 17.2547 11.4194 14.9803 11.4194C12.7059 11.4194 10.8622 9.57562 10.8622 7.30122V5.92851C10.8622 3.65412 12.7059 1.81036 14.9803 1.81036Z" fill="url(#paint3_linear_125_172)"/>
<path d="M49.4334 18.037L46.116 13.176L43.1671 18.037H39.1355L44.2269 10.3884L38.9512 2.67065H43.5818L46.9223 7.5547L49.779 2.67065H53.9028L48.8575 10.3884L54.0641 18.037H49.4334Z" fill="url(#paint4_linear_125_172)"/>
<path d="M55.9465 2.67065H66.4748V5.5504H59.6787V8.8909H65.5764V11.7937H59.6787V15.1572H66.4748V18.037H55.9465V2.67065Z" fill="url(#paint5_linear_125_172)"/>
<path d="M83.0109 2.67065V18.037H80.2002L73.0354 8.68356V18.037H69.6028V2.67065H72.782L79.5782 11.8167V2.67065H83.0109Z" fill="url(#paint6_linear_125_172)"/>
<path d="M86.2738 2.67065H92.448C95.0282 2.67065 96.9404 3.31572 98.1844 4.60584C99.4285 5.88061 100.05 7.80044 100.05 10.3653C100.05 12.9149 99.4285 14.8347 98.1844 16.1248C96.9404 17.3996 95.0282 18.037 92.448 18.037H86.2738V2.67065ZM92.0102 15.1572C93.4079 15.1572 94.46 14.7656 95.1665 13.9823C95.8729 13.199 96.2262 11.9933 96.2262 10.3653C96.2262 8.7066 95.8729 7.49326 95.1665 6.72533C94.46 5.94204 93.4079 5.5504 92.0102 5.5504H90.0059V15.1572H92.0102Z" fill="url(#paint7_linear_125_172)"/>
<defs>
<linearGradient id="paint0_linear_125_172" x1="34.6153" y1="27.8641" x2="-4.22305e-06" y2="4.41899" gradientUnits="userSpaceOnUse">
<stop stop-color="#2042B8"/>
<stop offset="0.933726" stop-color="#FF6600"/>
</linearGradient>
<linearGradient id="paint1_linear_125_172" x1="34.6153" y1="27.8641" x2="-4.22305e-06" y2="4.41899" gradientUnits="userSpaceOnUse">
<stop stop-color="#2042B8"/>
<stop offset="0.933726" stop-color="#FF6600"/>
</linearGradient>
<linearGradient id="paint2_linear_125_172" x1="34.6153" y1="27.8641" x2="-4.22305e-06" y2="4.41899" gradientUnits="userSpaceOnUse">
<stop stop-color="#2042B8"/>
<stop offset="0.933726" stop-color="#FF6600"/>
</linearGradient>
<linearGradient id="paint3_linear_125_172" x1="34.6153" y1="27.8641" x2="-4.22305e-06" y2="4.41899" gradientUnits="userSpaceOnUse">
<stop stop-color="#2042B8"/>
<stop offset="0.933726" stop-color="#FF6600"/>
</linearGradient>
<linearGradient id="paint4_linear_125_172" x1="61.866" y1="2.70053" x2="122.381" y2="66.0392" gradientUnits="userSpaceOnUse">
<stop stop-color="#2042B8"/>
<stop offset="0.54856" stop-color="#FF6600"/>
</linearGradient>
<linearGradient id="paint5_linear_125_172" x1="61.866" y1="2.70053" x2="122.381" y2="66.0392" gradientUnits="userSpaceOnUse">
<stop stop-color="#2042B8"/>
<stop offset="0.54856" stop-color="#FF6600"/>
</linearGradient>
<linearGradient id="paint6_linear_125_172" x1="61.866" y1="2.70053" x2="122.381" y2="66.0392" gradientUnits="userSpaceOnUse">
<stop stop-color="#2042B8"/>
<stop offset="0.54856" stop-color="#FF6600"/>
</linearGradient>
<linearGradient id="paint7_linear_125_172" x1="61.866" y1="2.70053" x2="122.381" y2="66.0392" gradientUnits="userSpaceOnUse">
<stop stop-color="#2042B8"/>
<stop offset="0.54856" stop-color="#FF6600"/>
</linearGradient>
</defs>
</svg>
